<svg aria-hidden="true" style="position: absolute; width: 0; height: 0; overflow: hidden;" version="1.1" xmlns="http://www.w3.org/2000/svg" xmlns:xlink="http://www.w3.org/1999/xlink">
<defs>
<symbol id="icon-trash" viewBox="0 0 24 24">
<path d="M18.8789 8.71882L18.9784 8.72017C19.3475 8.75069 19.6304 9.05716 19.65 9.42605L19.6405 9.63174L19.326 13.483L18.9961 17.2414C18.9263 17.9917 18.8638 18.6245 18.8099 19.1227C18.6225 20.8588 17.4955 21.9323 15.7966 21.9641C13.1494 22.013 10.6048 22.0125 8.13373 21.9591C6.48398 21.9244 5.37366 20.8393 5.18955 19.1297L5.0623 17.8702L4.83994 15.427L4.61216 12.7461L4.35172 9.52788C4.31935 9.11498 4.61951 8.75335 5.02215 8.72016C5.39123 8.68973 5.7183 8.94584 5.79519 9.30677L5.82511 9.60173L6.06966 12.6187L6.33669 15.7459C6.45646 17.0996 6.56034 18.1952 6.64346 18.9648C6.74838 19.939 7.26138 20.4404 8.16411 20.4593C10.6159 20.5124 13.1415 20.5129 15.7701 20.4643C16.7277 20.4464 17.2488 19.9499 17.356 18.9574L17.4827 17.7046C17.5198 17.3185 17.5594 16.8923 17.6013 16.4293L17.8686 13.3538L18.1906 9.4075C18.2204 9.02902 18.5192 8.7389 18.8789 8.71882ZM3.73139 6.98918C3.32745 6.98918 3 6.65338 3 6.23916C3 5.85945 3.27515 5.54564 3.63214 5.49597L3.73139 5.48913H6.91772C7.29636 5.48913 7.62785 5.23928 7.74642 4.87929L7.77543 4.76813L8.02304 3.50533C8.24111 2.66897 8.9492 2.07349 9.779 2.00633L9.93592 2H14.0639C14.9075 2 15.6523 2.54628 15.9391 3.39039L15.9874 3.55209L16.2243 4.76783C16.2987 5.14872 16.6025 5.4332 16.9701 5.48177L17.0821 5.48913H20.2686C20.6725 5.48913 21 5.82493 21 6.23916C21 6.61887 20.7248 6.93267 20.3679 6.98234L20.2686 6.98918H3.73139ZM14.0639 3.50006H9.93592C9.7307 3.50006 9.54829 3.62322 9.47252 3.77803L9.44682 3.84604L9.20979 5.06238C9.1808 5.21084 9.13879 5.3538 9.08512 5.49012L14.9148 5.49031C14.8813 5.40526 14.8523 5.31763 14.8282 5.22768L14.79 5.06208L14.5636 3.8928C14.5107 3.68991 14.3473 3.54138 14.1502 3.50742L14.0639 3.50006Z"></path>
</symbol>
<symbol id="icon-info" viewBox="0 0 24 24">
<path d="M12 2.00024C17.5229 2.00024 22 6.4777 22 12.0002C22 17.5228 17.5229 22.0002 12 22.0002C6.47779 22.0002 2 17.5225 2 12.0002C2 6.47803 6.47779 2.00024 12 2.00024ZM12 3.50024C7.30621 3.50024 3.5 7.30646 3.5 12.0002C3.5 16.694 7.30621 20.5002 12 20.5002C16.6944 20.5002 20.5 16.6944 20.5 12.0002C20.5 7.3061 16.6944 3.50024 12 3.50024ZM12.0051 15.0461C12.4193 15.0461 12.7551 15.3819 12.7551 15.7961C12.7551 16.1758 12.4729 16.4896 12.1069 16.5393L11.9951 16.5461C11.5809 16.5461 11.2451 16.2104 11.2451 15.7961C11.2451 15.4164 11.5273 15.1027 11.8933 15.053L12.0051 15.0461ZM11.9951 7.45434C12.3748 7.45434 12.6886 7.7365 12.7383 8.10257L12.7451 8.20434V12.6233C12.7451 13.0376 12.4093 13.3733 11.9951 13.3733C11.6154 13.3733 11.3016 13.0912 11.2519 12.7251L11.2451 12.6233V8.20434C11.2451 7.79013 11.5809 7.45434 11.9951 7.45434Z"></path>
</symbol>
</defs>
</svg>