<svg aria-hidden="true" style="position: absolute; width: 0; height: 0; overflow: hidden;" version="1.1" xmlns="http://www.w3.org/2000/svg" xmlns:xlink="http://www.w3.org/1999/xlink">
<defs>
<symbol id="icon-About-Us" viewBox="0 0 32 32">
<path  d="M16 2.667c7.364 0 13.333 5.97 13.333 13.333s-5.969 13.333-13.333 13.333c-7.363 0-13.333-5.97-13.333-13.333s5.97-13.333 13.333-13.333zM16 4.667c-6.258 0-11.333 5.075-11.333 11.333s5.075 11.333 11.333 11.333c6.259 0 11.333-5.074 11.333-11.333s-5.074-11.333-11.333-11.333zM16.007 20.061c0.552 0 1 0.448 1 1 0 0.506-0.376 0.925-0.864 0.991l-0.149 0.009c-0.552 0-1-0.448-1-1 0-0.506 0.376-0.925 0.864-0.991l0.149-0.009zM15.993 9.939c0.506 0 0.925 0.376 0.991 0.864l0.009 0.136v5.892c0 0.552-0.448 1-1 1-0.506 0-0.925-0.376-0.991-0.864l-0.009-0.136v-5.892c0-0.552 0.448-1 1-1z"></path>
</symbol>
<symbol id="icon-Add" viewBox="0 0 32 32">
<path  d="M16 4v12M16 28v-12M16 16h12M16 16h-12"></path>
</symbol>
<symbol id="icon-Appereance" viewBox="0 0 32 32">
<path  d="M8.644 3.754c2.343-0.754 4.878-0.482 7 0.721l0.351 0.211 0.357-0.212c2.011-1.139 4.397-1.443 6.642-0.825l0.354 0.106c4.897 1.577 7.089 6.924 5.442 12.040-0.826 2.38-2.18 4.538-3.968 6.316-2.433 2.363-5.115 4.449-7.994 6.22l-0.306 0.19c-0.31 0.193-0.703 0.196-1.016 0.009l-0.327-0.196c-2.883-1.773-5.565-3.859-8.006-6.231-1.78-1.77-3.134-3.928-3.967-6.329-1.641-5.098 0.542-10.443 5.438-12.019zM15.166 6.472c-1.739-1.189-3.922-1.508-5.924-0.864-3.792 1.221-5.511 5.429-4.186 9.547 0.729 2.1 1.924 4.004 3.485 5.557 2.331 2.263 4.9 4.262 7.651 5.954l-0.19-0.12 0.624-0.392c2.178-1.406 4.229-3.002 6.126-4.765l0.704-0.669c1.569-1.561 2.765-3.465 3.486-5.545 1.331-4.135-0.396-8.346-4.19-9.567-2.102-0.675-4.397-0.288-6.171 1.039-0.341 0.255-0.807 0.26-1.153 0.012l-0.262-0.188zM21.16 8.645c1.762 0.562 3.011 2.14 3.167 3.993 0.045 0.536-0.353 1.007-0.89 1.053s-1.008-0.353-1.053-0.889c-0.090-1.071-0.809-1.978-1.817-2.3-0.513-0.164-0.796-0.712-0.632-1.225s0.713-0.795 1.226-0.632z"></path>
</symbol>
<symbol id="icon-Arrow---Down" viewBox="0 0 32 32">
<path  d="M16 4c0.561 0 1.024 0.41 1.097 0.943l0.010 0.148-0.001 19.177 7.002-6.928c0.431-0.427 1.132-0.428 1.566-0.003 0.394 0.387 0.431 0.993 0.11 1.42l-0.107 0.123-8.915 8.822c-0.024 0.022-0.049 0.044-0.075 0.064l0.098-0.085c-0.043 0.042-0.088 0.081-0.136 0.115-0.030 0.021-0.061 0.041-0.093 0.059-0.071 0.041-0.146 0.074-0.223 0.097-0.027 0.008-0.055 0.015-0.083 0.022-0.021 0.005-0.043 0.009-0.065 0.013-0.024 0.004-0.047 0.007-0.071 0.009s-0.049 0.004-0.073 0.005c-0.014 0-0.027 0-0.041 0l-0.037-0c-0.027-0.001-0.054-0.003-0.082-0.006l0.118 0.006c-0.063 0-0.125-0.005-0.185-0.015-0.027-0.005-0.055-0.010-0.083-0.017-0.022-0.005-0.043-0.011-0.064-0.018-0.025-0.008-0.050-0.017-0.075-0.026s-0.051-0.021-0.076-0.033c-0.019-0.009-0.038-0.019-0.058-0.030-0.036-0.020-0.070-0.041-0.102-0.064-0.005-0.004-0.011-0.008-0.016-0.012-0.049-0.036-0.093-0.074-0.133-0.115l-8.885-8.791c-0.431-0.427-0.43-1.118 0.003-1.543 0.394-0.387 1.009-0.42 1.442-0.103l0.124 0.106 7 6.927 0.001-19.176c0-0.603 0.496-1.091 1.107-1.091z"></path>
</symbol>
<symbol id="icon-Arrow---Up" viewBox="0 0 32 32">
<path  d="M16 28c-0.561 0-1.024-0.41-1.097-0.943l-0.010-0.148 0.001-19.177-7.002 6.928c-0.431 0.427-1.132 0.428-1.566 0.003-0.394-0.387-0.431-0.993-0.11-1.42l0.107-0.123 8.915-8.822c0.024-0.022 0.049-0.044 0.075-0.064l-0.098 0.085c0.043-0.042 0.088-0.081 0.136-0.115 0.030-0.021 0.061-0.040 0.093-0.059 0.071-0.042 0.146-0.074 0.223-0.098 0.027-0.008 0.055-0.015 0.083-0.022 0.021-0.005 0.043-0.009 0.065-0.013 0.024-0.004 0.047-0.007 0.071-0.009s0.049-0.004 0.073-0.005c0.014-0 0.027-0 0.041-0l0.037 0c0.027 0.001 0.054 0.003 0.082 0.006l-0.118-0.006c0.063 0 0.125 0.005 0.185 0.015 0.027 0.004 0.055 0.010 0.083 0.017 0.022 0.005 0.043 0.011 0.064 0.018 0.025 0.008 0.050 0.017 0.075 0.026s0.051 0.021 0.076 0.033c0.019 0.009 0.038 0.019 0.058 0.030 0.036 0.020 0.070 0.041 0.102 0.064 0.005 0.004 0.011 0.008 0.016 0.012 0.049 0.036 0.093 0.074 0.133 0.115l8.885 8.791c0.431 0.427 0.43 1.118-0.003 1.543-0.394 0.387-1.009 0.42-1.442 0.103l-0.124-0.106-7-6.927-0.001 19.176c0 0.603-0.496 1.091-1.107 1.091z"></path>
</symbol>
<symbol id="icon-Back" viewBox="0 0 32 32">
<path  d="M11.333 22l-6-6M5.333 16l6-6M5.333 16h21.333"></path>
</symbol>
<symbol id="icon-Card" viewBox="0 0 32 32">
<path  d="M1.667 12c0-3.498 2.836-6.333 6.333-6.333h16c3.498 0 6.333 2.836 6.333 6.333v8c0 3.498-2.835 6.333-6.333 6.333h-16c-3.498 0-6.333-2.835-6.333-6.333v-8zM3.783 11h24.435c-0.451-1.911-2.168-3.333-4.217-3.333h-16c-2.049 0-3.766 1.422-4.217 3.333zM28.333 13h-24.667v7c0 2.393 1.94 4.333 4.333 4.333h16c2.393 0 4.333-1.94 4.333-4.333v-7zM17.667 20c0-0.552 0.448-1 1-1h5.333c0.552 0 1 0.448 1 1s-0.448 1-1 1h-5.333c-0.552 0-1-0.448-1-1z"></path>
</symbol>
<symbol id="icon-Coin" viewBox="0 0 32 32">
<path  d="M28 16c0 6.627-5.373 12-12 12s-12-5.373-12-12c0-6.627 5.373-12 12-12s12 5.373 12 12z"></path>
<path  d="M13.945 13.255c0-0.792 0.609-1.288 1.436-1.384v2.794c-0.087-0.017-0.165-0.044-0.244-0.070-0.792-0.261-1.193-0.714-1.193-1.341zM18.297 18.687c0 0.853-0.653 1.419-1.575 1.497v-3.003c0.061 0.017 0.122 0.035 0.174 0.044 0.975 0.27 1.401 0.749 1.401 1.462zM16.739 23.17l-0.009-1.105c2.385-0.226 3.9-1.541 3.9-3.613 0-2.107-1.419-2.994-3.169-3.369l-0.74-0.157v-3.038c0.923 0.148 1.436 0.844 1.462 1.541h2.228c-0.035-1.811-1.454-3.186-3.656-3.421v-1.132h-1.41v1.123c-2.107 0.191-3.76 1.349-3.76 3.438 0 1.976 1.428 2.986 3.047 3.343l0.749 0.165v3.238c-1.114-0.148-1.697-0.818-1.741-1.619h-2.281c0.017 1.61 1.097 3.308 3.978 3.517l-0.009 1.088h1.41z"></path>
</symbol>
<symbol id="icon-Customer" viewBox="0 0 32 32">
<path  d="M12.788 19.275l0.426 0.002c6.193 0.054 9.696 1.305 9.696 4.721 0 3.344-3.358 4.634-9.28 4.742l-0.843 0.008c-6.459 0-10.121-1.228-10.121-4.723 0-3.499 3.677-4.749 10.121-4.749zM12.788 21.275c-5.356 0-8.121 0.94-8.121 2.749 0 1.798 2.758 2.723 8.121 2.723 5.357 0 8.123-0.94 8.123-2.749 0-1.797-2.761-2.723-8.123-2.723zM23.449 18.331c0.774 0.053 1.544 0.164 2.283 0.328 1.584 0.315 2.762 0.903 3.301 2.035 0.398 0.838 0.398 1.814 0 2.652-0.537 1.129-1.702 1.713-3.295 2.041-0.541 0.111-1.070-0.237-1.181-0.778s0.237-1.070 0.778-1.181c1.025-0.211 1.707-0.553 1.892-0.94 0.14-0.295 0.14-0.64 0.001-0.934-0.185-0.389-0.871-0.732-1.907-0.938-0.663-0.147-1.334-0.243-2.008-0.289-0.551-0.037-0.967-0.515-0.93-1.065s0.515-0.967 1.066-0.93zM12.788 3.333c3.797 0 6.847 3.049 6.847 6.845 0 3.798-3.049 6.847-6.847 6.847s-6.845-3.049-6.845-6.847c0-3.797 3.048-6.845 6.845-6.845zM21.36 4.759c2.98 0 5.396 2.417 5.396 5.396s-2.416 5.396-5.396 5.396c-0.552 0-1-0.448-1-1s0.448-1 1-1c1.876 0 3.396-1.52 3.396-3.396s-1.521-3.396-3.396-3.396c-0.552 0-1-0.448-1-1s0.448-1 1-1zM12.788 5.333c-2.693 0-4.845 2.153-4.845 4.845 0 2.693 2.153 4.847 4.845 4.847s4.847-2.154 4.847-4.847c0-2.692-2.154-4.845-4.847-4.845z"></path>
</symbol>
<symbol id="icon-Dashboard" viewBox="0 0 32 32">
<path  d="M13.997 9.014c0.117 0.232 0.187 0.484 0.207 0.747l0.518 7.318c0.007 0.1 0.054 0.194 0.132 0.26 0.058 0.049 0.13 0.080 0.209 0.089l0.083 0.002 7.432-0.448c0.603-0.035 1.195 0.175 1.635 0.58s0.689 0.971 0.685 1.626c-0.331 4.817-3.869 8.843-8.687 9.887s-9.764-1.145-12.135-5.362c-0.634-1.087-1.061-2.276-1.259-3.48l-0.063-0.452c-0.055-0.338-0.084-0.68-0.089-1.009l0.004-0.323c0.014-5.029 3.545-9.378 8.513-10.55l0.341-0.075 0.183-0.030c0.961-0.131 1.906 0.372 2.289 1.22zM12.022 9.704l-0.112 0.013-0.305 0.069c-3.958 0.954-6.797 4.361-6.954 8.376l-0.007 0.327c-0.009 0.249-0 0.497 0.030 0.762l0.037 0.271c0.132 1.139 0.5 2.24 1.088 3.249 1.956 3.479 6.023 5.279 9.986 4.421s6.873-4.17 7.142-8.069c0-0.059-0.025-0.115-0.068-0.155-0.029-0.027-0.065-0.045-0.103-0.053l-0.058-0.005-7.42 0.447c-0.626 0.045-1.245-0.157-1.719-0.56s-0.764-0.974-0.806-1.583l-0.518-7.312c-0.001-0.012-0.004-0.024-0.027-0.071-0.034-0.075-0.107-0.122-0.187-0.126zM17.897 2.668c5.714 0.162 10.507 4.267 11.423 9.786l0.013 0.154-0.003 0.269c-0.032 0.397-0.192 0.774-0.458 1.078-0.334 0.381-0.809 0.616-1.328 0.653l-8.861 0.578c-1.136 0.064-2.112-0.78-2.186-1.889l-0.592-8.699 0.007-0.195 0.029-0.22c0.079-0.389 0.282-0.745 0.581-1.016 0.375-0.34 0.873-0.52 1.374-0.5zM17.882 4.599l0.586 8.572c0.003 0.052 0.049 0.092 0.094 0.089l8.796-0.575-0.044-0.24c-0.871-4.338-4.631-7.559-9.142-7.832l-0.29-0.014z"></path>
</symbol>
<symbol id="icon-Discount" viewBox="0 0 32 32">
<path  d="M18.601 3.622l0.243 0.227 0.958 0.958c0.329 0.328 0.761 0.53 1.22 0.575l0.198 0.010h1.371c2.138 0 3.887 1.672 4.009 3.78l0.007 0.236v1.369c0 0.466 0.161 0.915 0.451 1.271l0.132 0.147 0.958 0.958c1.509 1.502 1.576 3.904 0.194 5.486l-0.18 0.193-0.971 0.971c-0.327 0.327-0.529 0.759-0.574 1.218l-0.010 0.198v1.372c0 2.138-1.672 3.886-3.78 4.008l-0.236 0.007h-1.371c-0.465 0-0.914 0.161-1.27 0.452l-0.147 0.133-0.957 0.956c-1.5 1.511-3.904 1.577-5.487 0.195l-0.206-0.192-0.956-0.956c-0.331-0.329-0.764-0.532-1.222-0.577l-0.198-0.010h-1.372c-2.138 0-3.886-1.671-4.008-3.779l-0.007-0.236v-1.372c0-0.464-0.162-0.913-0.452-1.269l-0.132-0.147-0.956-0.957c-1.51-1.502-1.577-3.905-0.194-5.487l0.18-0.193 0.968-0.969c0.329-0.332 0.532-0.763 0.577-1.223l0.010-0.198v-1.369l0.007-0.236c0.118-2.030 1.743-3.656 3.772-3.773l0.236-0.007h1.372c0.465 0 0.914-0.161 1.27-0.451l0.147-0.132 0.958-0.959c1.502-1.509 3.905-1.575 5.449-0.228zM14.722 5.123l-0.153 0.139-0.962 0.963c-0.69 0.685-1.602 1.094-2.565 1.158l-0.264 0.009h-1.372c-1.050 0-1.914 0.806-2.006 1.833l-0.008 0.183v1.369c0 0.972-0.353 1.907-0.989 2.638l-0.181 0.194-0.97 0.971c-0.736 0.739-0.779 1.907-0.128 2.699l0.139 0.153 0.959 0.96c0.686 0.687 1.097 1.601 1.161 2.565l0.009 0.264v1.372c0 1.051 0.805 1.914 1.831 2.006l0.183 0.008h1.372c0.97 0 1.906 0.353 2.637 0.99l0.194 0.181 0.964 0.964c0.744 0.74 1.912 0.783 2.704 0.133l0.153-0.139 0.961-0.96c0.689-0.686 1.602-1.096 2.565-1.16l0.264-0.009h1.371c1.052 0 1.915-0.805 2.008-1.831l0.008-0.183v-1.372c0-0.972 0.353-1.909 0.989-2.637l0.18-0.193 0.97-0.97c0.736-0.74 0.778-1.907 0.129-2.699l-0.139-0.153-0.963-0.963c-0.685-0.69-1.094-1.601-1.158-2.566l-0.009-0.264v-1.369c0-1.051-0.805-1.915-1.833-2.008l-0.183-0.008h-1.371c-0.972 0-1.908-0.353-2.637-0.988l-0.194-0.18-0.917-0.92-0.053-0.049c-0.739-0.736-1.907-0.779-2.698-0.13zM20.129 18.723c0.093 0.093 0.173 0.2 0.227 0.32 0.040 0.12 0.067 0.253 0.067 0.387 0 0.135-0.027 0.253-0.067 0.373-0.053 0.12-0.133 0.24-0.227 0.333-0.187 0.187-0.44 0.293-0.707 0.293s-0.52-0.107-0.707-0.293c-0.093-0.093-0.16-0.213-0.213-0.333s-0.080-0.239-0.080-0.373c0-0.133 0.027-0.267 0.080-0.387s0.12-0.227 0.213-0.32c0.373-0.373 1.040-0.373 1.413 0zM20.133 11.866c0.355 0.355 0.387 0.911 0.097 1.302l-0.097 0.112-6.853 6.853c-0.391 0.391-1.024 0.391-1.414 0-0.355-0.355-0.387-0.911-0.097-1.302l0.097-0.112 6.853-6.853c0.39-0.391 1.024-0.391 1.414 0zM13.275 11.87c0.187 0.185 0.293 0.44 0.293 0.707 0 0.133-0.013 0.252-0.067 0.373-0.053 0.12-0.133 0.227-0.227 0.333-0.093 0.093-0.2 0.159-0.32 0.212s-0.253 0.081-0.387 0.081c-0.133 0-0.253-0.028-0.373-0.081s-0.24-0.119-0.333-0.212c-0.093-0.107-0.16-0.213-0.213-0.333-0.053-0.121-0.080-0.24-0.080-0.373 0-0.135 0.027-0.267 0.080-0.387s0.12-0.24 0.213-0.32c0.387-0.375 1.040-0.375 1.413 0z"></path>
</symbol>
<symbol id="icon-Edit" viewBox="0 0 32 32">
<path  d="M27.122 25.612c0.485 0 0.878 0.385 0.878 0.861 0 0.436-0.33 0.796-0.759 0.853l-0.119 0.008h-9.161c-0.485 0-0.878-0.385-0.878-0.861 0-0.436 0.33-0.796 0.759-0.853l0.119-0.008h9.161zM18.212 5.889c1.662-1.63 4.359-1.63 6.021 0l1.726 1.692c1.662 1.63 1.662 4.273 0 5.902l-12.972 12.715c-0.742 0.727-1.747 1.135-2.797 1.135h-5.312c-0.494 0-0.89-0.399-0.878-0.882l0.134-5.254c0.027-0.993 0.441-1.94 1.158-2.642l12.921-12.665zM17.208 9.305l-10.675 10.466c-0.398 0.39-0.629 0.918-0.644 1.469l-0.112 4.371 4.412 0.001c0.519 0 1.018-0.179 1.413-0.503l0.143-0.128 10.728-10.516-5.265-5.16zM22.992 7.106c-0.977-0.957-2.561-0.957-3.538 0l-1.003 0.982 5.264 5.16 1.003-0.983c0.922-0.904 0.974-2.34 0.154-3.303l-0.154-0.165-1.726-1.692z"></path>
</symbol>
<symbol id="icon-Export" viewBox="0 0 32 32">
<path  d="M19.298 2.667c0.057 0 0.114 0.005 0.168 0.014l0.182 0.001c0.272 0 0.533 0.111 0.721 0.307l6.755 7.035c0.179 0.186 0.279 0.434 0.279 0.693v12.253c0 3.327-2.699 6.183-5.973 6.183h-10.651c-3.444 0-6.112-2.719-6.112-6.183v-14.316c0-3.282 2.796-5.972 6.112-5.972l8.351-0.002c0.055-0.009 0.111-0.014 0.168-0.014zM18.297 4.68l-7.519 0.002c-2.229 0-4.112 1.813-4.112 3.972v14.316c0 2.367 1.781 4.183 4.112 4.183h10.651c2.144 0 3.973-1.936 3.973-4.183l-0.001-10.993-1.168 0.004c-0.445-0.001-0.95-0.001-1.513-0.003-2.36-0.005-4.286-1.854-4.416-4.182l-0.007-0.251-0-2.865zM15.52 11.588c0.506 0 0.925 0.376 0.991 0.864l0.009 0.136-0 6.339 2.077-2.082c0.39-0.391 1.023-0.393 1.414-0.003 0.356 0.354 0.389 0.91 0.1 1.302l-0.097 0.112-3.785 3.801-0.058 0.054c-0.014 0.012-0.028 0.023-0.043 0.034l0.101-0.088c-0.049 0.049-0.102 0.092-0.158 0.129-0.019 0.013-0.040 0.025-0.061 0.037-0.018 0.010-0.035 0.019-0.053 0.028-0.022 0.010-0.044 0.020-0.067 0.029s-0.046 0.018-0.070 0.025c-0.018 0.005-0.036 0.011-0.055 0.015-0.027 0.007-0.053 0.013-0.081 0.017-0.016 0.002-0.032 0.005-0.048 0.006-0.031 0.004-0.063 0.006-0.095 0.007-0.007-0-0.013-0-0.020-0l-0.020 0c-0.033-0.001-0.065-0.003-0.097-0.007l0.117 0.006c-0.055 0-0.108-0.004-0.16-0.013-0.029-0.004-0.058-0.010-0.087-0.017-0.015-0.004-0.030-0.009-0.045-0.013-0.029-0.008-0.058-0.018-0.086-0.030-0.015-0.007-0.030-0.013-0.044-0.020-0.023-0.010-0.047-0.022-0.069-0.035-0.020-0.012-0.040-0.025-0.060-0.038-0.016-0.009-0.031-0.020-0.046-0.031l-0.010-0.009c-0.015-0.011-0.029-0.023-0.043-0.034l-0.059-0.054-3.784-3.801c-0.39-0.391-0.388-1.025 0.003-1.414 0.356-0.354 0.911-0.385 1.302-0.094l0.112 0.097 2.075 2.085 0-6.343c0-0.552 0.448-1 1-1zM20.297 5.802l0 1.744c0 1.342 1.086 2.43 2.428 2.433h1.583l-4.011-4.177z"></path>
</symbol>
<symbol id="icon-Home" viewBox="0 0 32 32">
<path d="M12.973 3.718c1.693-1.345 4.067-1.399 5.812-0.16l0.215 0.16 8.119 6.495c0.893 0.692 1.441 1.72 1.535 2.839l0.013 0.268v10.812c0 2.787-2.201 5.053-4.96 5.2h-2.653c-1.268-0.025-2.293-1.012-2.387-2.252l-0.013-0.188v-3.812c0-0.415-0.308-0.76-0.72-0.828l-0.12-0.013h-3.561c-0.425 0.013-0.772 0.32-0.825 0.72l-0.013 0.121v3.8c0 0.079-0.015 0.172-0.027 0.239l-0.013 0.028-0.015 0.092c-0.159 1.135-1.092 2-2.252 2.081l-0.173 0.012h-2.387c-2.787 0-5.067-2.185-5.213-4.933v-11.079c0.012-1.135 0.507-2.188 1.333-2.921l8.307-6.68zM17.84 5.171c-1.013-0.813-2.453-0.852-3.52-0.147l-0.201 0.147-8.107 6.535c-0.465 0.345-0.745 0.865-0.812 1.412l-0.015 0.213v10.8c0 1.773 1.387 3.227 3.148 3.333h2.6c0.293 0 0.547-0.199 0.585-0.479l0.028-0.24 0.013-0.068v-3.599c0-1.427 1.093-2.587 2.493-2.695h3.76c1.425 0 2.585 1.095 2.693 2.495v4.012c0 0.28 0.2 0.521 0.467 0.573h2.479c1.787 0 3.24-1.372 3.347-3.12l0.015-0.213v-10.8c-0.015-0.572-0.253-1.107-0.667-1.505l-0.173-0.148-8.133-6.507z"></path>
</symbol>
<symbol id="icon-Log-Out" viewBox="0 0 32 32">
<path  d="M15.109 2.695c3.172 0 5.761 2.499 5.907 5.635l0.007 0.278v1.244c0 0.552-0.448 1-1 1-0.506 0-0.925-0.376-0.991-0.864l-0.009-0.136v-1.244c0-2.084-1.629-3.788-3.683-3.907l-0.23-0.007h-6.5c-2.083 0-3.786 1.63-3.905 3.683l-0.007 0.23v14.84c0 2.084 1.629 3.788 3.682 3.907l0.23 0.007h6.513c2.076 0 3.775-1.623 3.893-3.67l0.007-0.229v-1.257c0-0.552 0.448-1 1-1 0.506 0 0.925 0.376 0.991 0.864l0.009 0.136v1.257c0 3.162-2.489 5.743-5.614 5.892l-0.286 0.007h-6.513c-3.171 0-5.76-2.499-5.906-5.635l-0.006-0.278v-14.84c0-3.172 2.498-5.761 5.634-5.907l0.278-0.006h6.5zM25.769 11.336l0.112 0.097 3.904 3.887c0.035 0.035 0.066 0.070 0.094 0.108l-0.094-0.108c0.041 0.041 0.077 0.084 0.11 0.129 0.023 0.032 0.044 0.065 0.063 0.1 0.003 0.007 0.007 0.013 0.010 0.020 0.017 0.032 0.032 0.065 0.045 0.099 0.005 0.015 0.011 0.030 0.016 0.045 0.010 0.028 0.018 0.057 0.025 0.086 0.003 0.016 0.006 0.031 0.009 0.047 0.005 0.027 0.009 0.055 0.012 0.084 0.001 0.020 0.003 0.039 0.004 0.059 0.001 0.013 0.001 0.026 0.001 0.040l-0.001 0.038c-0.001 0.021-0.002 0.041-0.004 0.061l0.005-0.099c0 0.062-0.006 0.124-0.017 0.183-0.003 0.015-0.007 0.031-0.010 0.046-0.007 0.031-0.015 0.061-0.025 0.090-0.005 0.014-0.010 0.027-0.015 0.041-0.012 0.033-0.027 0.065-0.043 0.097-0.004 0.007-0.008 0.015-0.013 0.023-0.046 0.084-0.103 0.161-0.17 0.228l-0.002 0.001-3.904 3.888c-0.391 0.39-1.025 0.388-1.414-0.003-0.354-0.356-0.385-0.911-0.094-1.302l0.097-0.112 2.185-2.181-13.63 0.001c-0.552 0-1-0.448-1-1 0-0.506 0.376-0.925 0.864-0.991l0.136-0.009 13.633-0.001-2.188-2.177c-0.356-0.354-0.389-0.91-0.1-1.302l0.097-0.112c0.354-0.356 0.91-0.389 1.302-0.1z"></path>
</symbol>
<symbol id="icon-Message" viewBox="0 0 32 32">
<path  d="M21.762 3.677c2.019 0.023 3.94 0.877 5.316 2.365s2.088 3.478 1.971 5.447l-0.002 8.316c0.119 2.030-0.593 4.020-1.969 5.507s-3.298 2.342-5.328 2.365h-12.081c-4.226 0-7.275-3.415-7.275-7.812v-8.376c0-4.397 3.049-7.812 7.275-7.812h12.092zM21.739 5.715h-12.070c-3.058 0-5.252 2.458-5.252 5.774v8.376c0 3.317 2.194 5.774 5.252 5.774h12.070c1.465-0.017 2.86-0.637 3.859-1.716s1.516-2.524 1.427-4.058l0.002-8.436c0.086-1.473-0.43-2.918-1.429-3.998s-2.394-1.7-3.859-1.716zM23.76 11.195c0.317 0.399 0.288 0.966-0.048 1.33l-0.11 0.103-5.476 4.415c-1.33 1.044-3.168 1.096-4.554 0.152l-0.215-0.157-5.513-4.407c-0.438-0.35-0.511-0.991-0.164-1.432 0.316-0.401 0.87-0.498 1.297-0.25l0.124 0.085 5.506 4.401c0.617 0.485 1.464 0.522 2.108 0.118l0.157-0.11 5.466-4.407c0.436-0.352 1.073-0.281 1.422 0.159z"></path>
</symbol>
<symbol id="icon-Notification" viewBox="0 0 32 32">
<path  d="M19.477 26.254c0.395 0.322 0.458 0.908 0.14 1.308-0.235 0.296-0.507 0.561-0.795 0.778-0.97 0.761-2.204 1.107-3.429 0.961-1.226-0.146-2.344-0.772-3.108-1.742-0.316-0.402-0.251-0.987 0.146-1.307s0.975-0.254 1.291 0.148c0.46 0.585 1.139 0.965 1.885 1.053 0.747 0.089 1.499-0.121 2.102-0.594 0.178-0.134 0.337-0.29 0.475-0.463 0.318-0.4 0.897-0.464 1.292-0.142zM6.87 12l0.016-0.794c0.012-0.34 0.030-0.655 0.057-0.964 0.4-4.315 4.518-7.575 9.011-7.575h0.095c4.49 0 8.61 3.257 9.023 7.58 0.024 0.275 0.034 0.519 0.037 0.862l0.001 1.050c0.001 0.096 0.003 0.18 0.005 0.258l0.012 0.262 0.059 0.249c0.188 0.695 0.517 1.344 0.969 1.908l0.201 0.236 0.082 0.106c0.542 0.809 0.851 1.751 0.895 2.765l-0.001 0.538c-0.038 1.201-0.479 2.361-1.287 3.328-1.070 1.136-2.521 1.841-4.062 1.983-3.98 0.432-7.996 0.432-11.966 0.001-1.552-0.149-2.998-0.853-4.115-2.032-0.824-1.004-1.262-2.269-1.234-3.547l0.001-0.318c0.048-0.972 0.355-1.913 0.89-2.725l0.090-0.115c0.625-0.685 1.052-1.524 1.238-2.428l-0.020 0.081 0.003-0.712zM16.048 4.527h-0.095c-3.598 0-6.876 2.594-7.18 5.882-0.016 0.181-0.028 0.367-0.038 0.563l-0.021 0.622-0.009 1.226-0.019 0.189c-0.253 1.235-0.836 2.379-1.687 3.312l0.066-0.076-0.117 0.194c-0.22 0.397-0.362 0.827-0.418 1.252l-0.023 0.254-0 0.292c-0.018 0.849 0.269 1.678 0.766 2.288 0.767 0.807 1.804 1.312 2.931 1.42 3.85 0.418 7.735 0.418 11.6-0.001 1.114-0.103 2.151-0.607 2.876-1.374 0.549-0.658 0.839-1.489 0.818-2.364l0.001-0.218c-0.028-0.629-0.229-1.238-0.58-1.764l0.020 0.034-0.184-0.216c-0.634-0.782-1.094-1.69-1.351-2.663l-0.087-0.368-0.017-0.124c-0.013-0.181-0.021-0.341-0.025-0.534l-0.004-1.206c-0.003-0.307-0.011-0.513-0.029-0.73-0.315-3.297-3.596-5.891-7.193-5.891z"></path>
</symbol>
<symbol id="icon-Option" viewBox="0 0 32 32">
<path  d="M24.317 18.763c2.767 0 5.016 2.22 5.016 4.952 0 2.73-2.249 4.952-5.016 4.952s-5.016-2.222-5.016-4.952c0-2.731 2.249-4.952 5.016-4.952zM24.317 21.086c-1.47 0-2.664 1.178-2.664 2.629 0 1.449 1.194 2.629 2.664 2.629s2.663-1.18 2.663-2.629c0-1.451-1.194-2.629-2.663-2.629zM13.49 22.553c0.649 0 1.176 0.52 1.176 1.161s-0.527 1.161-1.176 1.161h-9.645c-0.649 0-1.176-0.52-1.176-1.161s0.527-1.161 1.176-1.161h9.645zM7.683 3.333c2.767 0 5.016 2.222 5.016 4.952s-2.249 4.952-5.016 4.952c-2.765 0-5.016-2.222-5.016-4.952s2.251-4.952 5.016-4.952zM7.683 5.656c-1.468 0-2.663 1.18-2.663 2.629s1.195 2.629 2.663 2.629c1.47 0 2.663-1.18 2.663-2.629s-1.194-2.629-2.663-2.629zM28.157 7.124c0.649 0 1.176 0.52 1.176 1.161s-0.527 1.161-1.176 1.161h-9.647c-0.649 0-1.176-0.52-1.176-1.161s0.527-1.161 1.176-1.161h9.647z"></path>
</symbol>
<symbol id="icon-Order" viewBox="0 0 32 32">
<path  d="M19.981 2.667c4.083 0 6.686 1.913 6.686 5.677v18.764c0 0.59-0.229 1.156-0.636 1.574s-0.959 0.652-1.55 0.652c-0.352-0.006-0.699-0.095-1.033-0.271l-7.483-4.178-7.453 4.187c-0.898 0.478-1.985 0.258-2.667-0.542l-0.131-0.167-0.125-0.206c-0.163-0.319-0.251-0.673-0.257-1.049v-18.529c0-3.913 2.546-5.912 6.686-5.912h7.962zM19.981 4.597h-7.962c-3.193 0-4.803 1.264-4.803 3.982l-0 18.513c0.001 0.059 0.015 0.117-0 0.094l0.050 0.083c0.086 0.12 0.248 0.159 0.361 0.099l7.45-4.184c0.555-0.308 1.224-0.308 1.782 0.001l7.47 4.171c0.057 0.030 0.119 0.046 0.168 0.047 0.076 0 0.15-0.031 0.204-0.086s0.084-0.13 0.084-0.209v-18.764c0-2.533-1.651-3.747-4.803-3.747zM20.544 11.089c0.52 0 0.941 0.432 0.941 0.965 0 0.489-0.354 0.892-0.814 0.956l-0.128 0.009h-9.157c-0.52 0-0.941-0.432-0.941-0.965 0-0.489 0.354-0.892 0.814-0.956l0.128-0.009h9.157z"></path>
</symbol>
<symbol id="icon-Paypal" viewBox="0 0 32 32">
<path d="M23.333 9.6c2.267 1.333 3.333 3.733 3.333 6.4 0 3.333-3.333 6-6.667 6h-3.467l-0.8 4.8c-0.062 0.306-0.23 0.58-0.473 0.775s-0.548 0.298-0.86 0.292h-3.6c-0.1 0.002-0.199-0.019-0.29-0.060s-0.171-0.103-0.236-0.18c-0.064-0.077-0.11-0.167-0.134-0.264s-0.027-0.198-0.007-0.296l0.267-1.867M13.333 17.333h3.333c3.333 0 6.667-3.333 6.667-6.667 0-4-2.533-6.667-6.667-6.667h-7.333c-0.667 0-1.333 0.667-1.333 1.333l-2.667 18.667c0 0.667 0.667 1.333 1.333 1.333h3.733l1.6-6.667c0.133-0.8 0.533-1.333 1.333-1.333z"></path>
</symbol>
<symbol id="icon-Print" viewBox="0 0 32 32">
<path  d="M1.667 10.667c0-2.025 1.642-3.667 3.667-3.667h21.333c2.025 0 3.667 1.642 3.667 3.667v10.667c0 2.025-1.642 3.667-3.667 3.667h-2.667c-0.552 0-1-0.448-1-1s0.448-1 1-1h2.667c0.921 0 1.667-0.746 1.667-1.667v-10.667c0-0.92-0.746-1.667-1.667-1.667h-21.333c-0.92 0-1.667 0.746-1.667 1.667v10.667c0 0.921 0.746 1.667 1.667 1.667h2.667c0.552 0 1 0.448 1 1s-0.448 1-1 1h-2.667c-2.025 0-3.667-1.642-3.667-3.667v-10.667z"></path>
<path  d="M26.667 12.667c0 1.105-0.895 2-2 2s-2-0.895-2-2c0-1.105 0.895-2 2-2s2 0.895 2 2z"></path>
<path  d="M7 2.667c0-0.552 0.448-1 1-1h16c0.552 0 1 0.448 1 1v5.333c0 0.552-0.448 1-1 1h-16c-0.552 0-1-0.448-1-1v-5.333zM9 3.667v3.333h14v-3.333h-14z"></path>
<path  d="M7 18.667c0-0.552 0.448-1 1-1h16c0.552 0 1 0.448 1 1v10.667c0 0.552-0.448 1-1 1h-16c-0.552 0-1-0.448-1-1v-10.667zM9 19.667v8.667h14v-8.667h-14z"></path>
</symbol>
<symbol id="icon-Restaurant" viewBox="0 0 32 32">
<path  d="M29.285 9.032l-1.905-5.714c-0.13-0.389-0.494-0.652-0.904-0.651h-20.952c-0.41-0-0.774 0.262-0.904 0.651l-1.905 5.714c-0.029 0.089-0.046 0.182-0.049 0.275 0 0.010 0 0.016 0 0.026v0.952c0.003 1.492 0.709 2.896 1.905 3.789 0 0.008 0 0.013 0 0.021v12.381c0 1.578 1.279 2.857 2.857 2.857h17.143c1.578 0 2.857-1.279 2.857-2.857v-12.381c0-0.008 0-0.013 0-0.021 1.196-0.893 1.901-2.296 1.905-3.789v-0.952c0-0.010 0-0.016 0-0.026-0.003-0.094-0.019-0.186-0.049-0.275zM6.267 4.571h19.523l1.27 3.81h-22.127l1.333-3.81zM17.905 27.429h-3.81v-7.619h3.81v7.619zM25.524 26.476c0 0.526-0.426 0.952-0.952 0.952h-4.762v-8.571c0-0.526-0.426-0.952-0.952-0.952h-5.714c-0.526 0-0.952 0.426-0.952 0.952v8.571h-4.762c-0.526 0-0.952-0.426-0.952-0.952v-11.524c1.337 0.274 2.726-0.045 3.81-0.874 1.7 1.249 4.014 1.249 5.714 0 1.7 1.249 4.014 1.249 5.714 0 1.083 0.83 2.473 1.149 3.81 0.874v11.524zM24.571 13.143c-0.824-0.001-1.606-0.362-2.14-0.989-0.346-0.396-0.948-0.437-1.344-0.090-0.032 0.028-0.062 0.058-0.090 0.090-1.059 1.182-2.876 1.282-4.057 0.223-0.078-0.070-0.153-0.144-0.223-0.223-0.373-0.396-0.996-0.415-1.392-0.042-0.015 0.014-0.029 0.028-0.042 0.042-1.059 1.182-2.875 1.282-4.057 0.223-0.078-0.070-0.153-0.144-0.223-0.223-0.373-0.396-0.996-0.415-1.392-0.042-0.014 0.014-0.029 0.028-0.042 0.042-0.534 0.627-1.316 0.988-2.14 0.989-1.578 0-2.857-1.279-2.857-2.857h22.857c0 1.578-1.279 2.857-2.857 2.857z"></path>
</symbol>
<symbol id="icon-Security" viewBox="0 0 32 32">
<path  d="M16.013 2.667c3.086 0 5.797 1.932 6.791 4.755 0.184 0.522-0.097 1.091-0.628 1.272s-1.109-0.096-1.293-0.618c-0.712-2.024-2.657-3.41-4.874-3.41-2.756-0.011-5.015 2.109-5.165 4.781l-0.008 0.26-0 1.793 10.342 0c3.302 0 5.998 2.559 6.149 5.772l0.007 0.285v5.717c0 3.345-2.756 6.057-6.156 6.057h-10.355c-3.4 0-6.156-2.712-6.156-6.057v-5.717c0-2.649 1.729-4.901 4.136-5.724l0-2.132c0.017-3.902 3.247-7.052 7.21-7.037zM21.178 13.502h-10.355c-2.277 0-4.123 1.816-4.123 4.057v5.717c0 2.241 1.846 4.057 4.123 4.057h10.355c2.277 0 4.123-1.816 4.123-4.057v-5.717c0-2.241-1.846-4.057-4.123-4.057zM16 17.937c0.515 0 0.94 0.376 1.007 0.864l0.009 0.136v2.963c0 0.552-0.455 1-1.016 1-0.515 0-0.94-0.376-1.007-0.864l-0.009-0.136v-2.963c0-0.552 0.455-1 1.016-1z"></path>
</symbol>
<symbol id="icon-Setting" viewBox="0 0 32 32">
<path  d="M16.821 2.667c0.945-0 1.851 0.374 2.51 1.038s1.015 1.561 0.987 2.399l0.011 0.197c0.023 0.194 0.087 0.381 0.192 0.554 0.204 0.34 0.537 0.587 0.927 0.686s0.803 0.042 1.195-0.182l0.219-0.111c1.64-0.755 3.607-0.155 4.516 1.392l0.818 1.39c0.022 0.037 0.041 0.075 0.057 0.113l0.076 0.149c0.731 1.529 0.211 3.348-1.178 4.272l-0.343 0.211c-0.179 0.123-0.329 0.283-0.441 0.475-0.203 0.341-0.259 0.748-0.155 1.13s0.359 0.707 0.746 0.927l0.223 0.14c0.673 0.461 1.158 1.14 1.37 1.919 0.239 0.878 0.111 1.814-0.363 2.61l-0.879 1.435-0.133 0.203c-1.033 1.456-3.040 1.901-4.571 1.035l-0.181-0.092c-0.189-0.083-0.394-0.129-0.579-0.134-0.405-0.002-0.793 0.155-1.079 0.435s-0.446 0.661-0.445 1.103l-0.011 0.229c-0.148 1.772-1.662 3.145-3.486 3.145h-1.647c-1.932 0-3.498-1.534-3.496-3.366l-0.011-0.197c-0.023-0.194-0.087-0.381-0.197-0.563-0.199-0.341-0.529-0.59-0.916-0.691s-0.8-0.047-1.2 0.179l-0.237 0.116c-0.751 0.331-1.597 0.392-2.391 0.171-0.895-0.249-1.652-0.838-2.094-1.619l-0.85-1.438-0.113-0.213c-0.774-1.6-0.167-3.524 1.372-4.396l0.14-0.086c0.411-0.279 0.658-0.739 0.658-1.23 0-0.535-0.291-1.029-0.801-1.318l-0.207-0.13c-1.486-1.012-1.94-2.978-1.019-4.543l0.866-1.394c0.963-1.637 3.096-2.202 4.738-1.28l0.178 0.093c0.181 0.081 0.378 0.125 0.567 0.127 0.835 0 1.516-0.657 1.528-1.499l0.011-0.259c0.068-0.801 0.423-1.553 1.003-2.124 0.654-0.644 1.543-1.006 2.471-1.006h1.647zM16.822 4.597h-1.647c-0.403 0-0.79 0.157-1.074 0.437-0.252 0.248-0.406 0.575-0.433 0.881l-0.018 0.407c-0.138 1.772-1.649 3.164-3.498 3.163-0.476-0.005-0.946-0.108-1.425-0.325l-0.257-0.133c-0.731-0.41-1.663-0.164-2.095 0.571l-0.866 1.394c-0.397 0.675-0.198 1.533 0.416 1.953l0.348 0.216c0.957 0.634 1.538 1.696 1.538 2.839 0 1.126-0.565 2.179-1.54 2.839l-0.208 0.128c-0.684 0.388-0.948 1.225-0.63 1.884l0.075 0.142 0.839 1.418c0.197 0.348 0.528 0.605 0.919 0.714 0.347 0.097 0.716 0.070 1.005-0.056l0.145-0.069c0.8-0.457 1.754-0.583 2.649-0.348s1.657 0.81 2.109 1.584c0.243 0.402 0.397 0.849 0.457 1.362l0.027 0.471c0.083 0.75 0.731 1.334 1.519 1.334h1.647c0.796 0 1.458-0.6 1.52-1.335l0.007-0.145c-0.004-0.911 0.363-1.787 1.021-2.431s1.551-1.005 2.503-1c0.467 0.012 0.927 0.115 1.397 0.322l0.421 0.211c0.661 0.284 1.446 0.077 1.843-0.482l0.097-0.148 0.859-1.403c0.203-0.341 0.259-0.748 0.155-1.13-0.092-0.338-0.303-0.634-0.559-0.81l-0.363-0.225c-0.694-0.46-1.199-1.151-1.416-1.949-0.239-0.878-0.111-1.814 0.353-2.593 0.254-0.434 0.602-0.807 1.057-1.116l0.214-0.132c0.683-0.391 0.946-1.228 0.631-1.89l-0.094-0.178-0.017-0.037-0.78-1.327c-0.369-0.627-1.136-0.898-1.787-0.684l-0.148 0.058-0.138 0.069c-0.798 0.46-1.749 0.591-2.645 0.363s-1.663-0.796-2.128-1.574c-0.243-0.402-0.397-0.848-0.457-1.362l-0.018-0.336c0.012-0.404-0.144-0.796-0.432-1.086s-0.683-0.453-1.096-0.453zM16.004 11.642c2.456 0 4.448 1.951 4.448 4.358s-1.991 4.358-4.448 4.358c-2.456 0-4.448-1.951-4.448-4.358s1.991-4.358 4.448-4.358zM16.004 13.573c-1.368 0-2.477 1.087-2.477 2.427s1.109 2.427 2.477 2.427c1.368 0 2.477-1.087 2.477-2.427s-1.109-2.427-2.477-2.427z"></path>
</symbol>
<symbol id="icon-Trash" viewBox="0 0 32 32">
<path  d="M25.172 11.625l0.133 0.002c0.492 0.041 0.869 0.449 0.895 0.941l-0.013 0.274-0.419 5.135-0.44 5.011c-0.093 1-0.176 1.844-0.248 2.508-0.25 2.315-1.753 3.746-4.018 3.789-3.53 0.065-6.922 0.065-10.217-0.007-2.2-0.046-3.68-1.493-3.926-3.773l-0.17-1.679-0.296-3.258-0.304-3.575-0.347-4.291c-0.043-0.551 0.357-1.033 0.894-1.077 0.492-0.041 0.928 0.301 1.031 0.782l0.040 0.393 0.326 4.023 0.356 4.17c0.16 1.805 0.298 3.266 0.409 4.292 0.14 1.299 0.824 1.967 2.028 1.993 3.269 0.071 6.637 0.071 10.141 0.007 1.277-0.024 1.972-0.686 2.115-2.009l0.169-1.67c0.049-0.515 0.102-1.083 0.158-1.7l0.356-4.101 0.429-5.262c0.040-0.505 0.438-0.891 0.918-0.918zM4.975 9.319c-0.539 0-0.975-0.448-0.975-1 0-0.506 0.367-0.925 0.843-0.991l0.132-0.009h4.248c0.505 0 0.947-0.333 1.105-0.813l0.039-0.148 0.33-1.684c0.291-1.115 1.235-1.909 2.341-1.999l0.209-0.008h5.504c1.125 0 2.118 0.728 2.5 1.854l0.064 0.216 0.316 1.621c0.099 0.508 0.504 0.887 0.994 0.952l0.149 0.010h4.249c0.539 0 0.975 0.448 0.975 1 0 0.506-0.367 0.925-0.843 0.991l-0.132 0.009h-22.050zM18.752 4.667h-5.504c-0.274 0-0.517 0.164-0.618 0.371l-0.034 0.091-0.316 1.622c-0.039 0.198-0.095 0.389-0.166 0.57l7.773 0c-0.045-0.113-0.083-0.23-0.115-0.35l-0.051-0.221-0.302-1.559c-0.071-0.271-0.288-0.469-0.551-0.514l-0.115-0.010z"></path>
</symbol>
<symbol id="icon-Wallet" viewBox="0 0 32 32"> 
<path  d="M21.584 3.333c4.28 0 7.749 3.548 7.749 7.925v9.483c0 4.377-3.47 7.925-7.749 7.925h-11.168c-4.28 0-7.749-3.548-7.749-7.925v-9.483c0-4.377 3.47-7.925 7.749-7.925h11.168zM21.584 5.315h-11.168c-3.209 0-5.811 2.661-5.811 5.943v9.483c0 3.282 2.602 5.943 5.811 5.943h11.168c3.209 0 5.811-2.661 5.811-5.943l-0.001-0.37-4.261 0.001c-2.455-0.001-4.445-2.036-4.447-4.547 0-2.427 1.861-4.409 4.203-4.54l0.244-0.007 4.261-0 0.001-0.020c0-3.186-2.451-5.786-5.53-5.936l-0.281-0.007zM27.395 13.26l-4.26 0.001c-1.387 0.001-2.51 1.149-2.51 2.564 0.001 1.349 1.019 2.455 2.313 2.558l0.196 0.008 4.261-0v-5.131zM23.726 14.754c0.535 0 0.969 0.444 0.969 0.991 0 0.502-0.365 0.916-0.838 0.982l-0.131 0.009h-0.403c-0.535 0-0.969-0.444-0.969-0.991 0-0.502 0.365-0.916 0.838-0.982l0.131-0.009h0.403zM16.472 9.33c0.535 0 0.969 0.444 0.969 0.991 0 0.502-0.365 0.916-0.838 0.982l-0.131 0.009h-6.976c-0.535 0-0.969-0.444-0.969-0.991 0-0.502 0.365-0.916 0.838-0.982l0.132-0.009h6.976z"></path>
</symbol>
<symbol id="icon-Info" viewBox="0 0 32 32">
<path d="M10 0.000244141C15.5229 0.000244141 20 4.4777 20 10.0002C20 15.5228 15.5229 20.0002 10 20.0002C4.47779 20.0002 0 15.5225 0 10.0002C0 4.47803 4.47779 0.000244141 10 0.000244141ZM10 1.50024C5.30621 1.50024 1.5 5.30646 1.5 10.0002C1.5 14.694 5.30621 18.5002 10 18.5002C14.6944 18.5002 18.5 14.6944 18.5 10.0002C18.5 5.3061 14.6944 1.50024 10 1.50024ZM10.0051 13.0461C10.4193 13.0461 10.7551 13.3819 10.7551 13.7961C10.7551 14.1758 10.4729 14.4896 10.1069 14.5393L9.9951 14.5461C9.58089 14.5461 9.2451 14.2104 9.2451 13.7961C9.2451 13.4164 9.52725 13.1027 9.89333 13.053L10.0051 13.0461ZM9.9951 5.45434C10.3748 5.45434 10.6886 5.7365 10.7383 6.10257L10.7451 6.20434V10.6233C10.7451 11.0376 10.4093 11.3733 9.9951 11.3733C9.6154 11.3733 9.30161 11.0912 9.25195 10.7251L9.2451 10.6233V6.20434C9.2451 5.79013 9.58089 5.45434 9.9951 5.45434Z"></path>
</symbol>
<symbol id="icon-Search" viewBox="0 0 15 15">
<path d="M1.66667 6.66667C1.66667 3.90917 3.90917 1.66667 6.66667 1.66667C9.42417 1.66667 11.6667 3.90917 11.6667 6.66667C11.6667 9.42417 9.42417 11.6667 6.66667 11.6667C3.90917 11.6667 1.66667 9.42417 1.66667 6.66667M14.7558 13.5775L11.9267 10.7475C12.8042 9.61917 13.3333 8.205 13.3333 6.66667C13.3333 2.99083 10.3425 0 6.66667 0C2.99083 0 0 2.99083 0 6.66667C0 10.3425 2.99083 13.3333 6.66667 13.3333C8.205 13.3333 9.61917 12.8042 10.7475 11.9267L13.5775 14.7558C13.74 14.9183 13.9533 15 14.1667 15C14.38 15 14.5933 14.9183 14.7558 14.7558C15.0817 14.43 15.0817 13.9033 14.7558 13.5775"></path>
</symbol>
<symbol id="icon-Loader" viewBox="0 0 24 24">
<path d="M11 2v4c0 0.552 0.448 1 1 1s1-0.448 1-1v-4c0-0.552-0.448-1-1-1s-1 0.448-1 1zM11 18v4c0 0.552 0.448 1 1 1s1-0.448 1-1v-4c0-0.552-0.448-1-1-1s-1 0.448-1 1zM4.223 5.637l2.83 2.83c0.391 0.391 1.024 0.391 1.414 0s0.391-1.024 0-1.414l-2.83-2.83c-0.391-0.391-1.024-0.391-1.414 0s-0.391 1.024 0 1.414zM15.533 16.947l2.83 2.83c0.391 0.391 1.024 0.391 1.414 0s0.391-1.024 0-1.414l-2.83-2.83c-0.391-0.391-1.024-0.391-1.414 0s-0.391 1.024 0 1.414zM2 13h4c0.552 0 1-0.448 1-1s-0.448-1-1-1h-4c-0.552 0-1 0.448-1 1s0.448 1 1 1zM18 13h4c0.552 0 1-0.448 1-1s-0.448-1-1-1h-4c-0.552 0-1 0.448-1 1s0.448 1 1 1zM5.637 19.777l2.83-2.83c0.391-0.391 0.391-1.024 0-1.414s-1.024-0.391-1.414 0l-2.83 2.83c-0.391 0.391-0.391 1.024 0 1.414s1.024 0.391 1.414 0zM16.947 8.467l2.83-2.83c0.391-0.391 0.391-1.024 0-1.414s-1.024-0.391-1.414 0l-2.83 2.83c-0.391 0.391-0.391 1.024 0 1.414s1.024 0.391 1.414 0z"></path>
</symbol>

</defs>
</svg>
