<svg width="22" height="16" viewBox="0 0 22 16" fill="none" xmlns="http://www.w3.org/2000/svg">
<path fill-rule="evenodd" clip-rule="evenodd" d="M0.25 5C0.25 2.37665 2.37665 0.25 5 0.25H17C19.6234 0.25 21.75 2.37665 21.75 5V11C21.75 13.6234 19.6234 15.75 17 15.75H5C2.37665 15.75 0.25 13.6234 0.25 11V5ZM1.83697 4.25H20.163C19.8245 2.81665 18.5368 1.75 17 1.75H5C3.46321 1.75 2.17555 2.81665 1.83697 4.25ZM20.25 5.75H1.75V11C1.75 12.7949 3.20507 14.25 5 14.25H17C18.7949 14.25 20.25 12.7949 20.25 11V5.75ZM12.25 11C12.25 10.5858 12.5858 10.25 13 10.25H17C17.4142 10.25 17.75 10.5858 17.75 11C17.75 11.4142 17.4142 11.75 17 11.75H13C12.5858 11.75 12.25 11.4142 12.25 11Z" fill="#ABBBC2"/>
</svg>
