<!-- Generated by IcoMoon.io -->
<svg version="1.1" xmlns="http://www.w3.org/2000/svg" width="32" height="32" viewBox="0 0 32 32">
<title>About-Us</title>
<path fill="#3b5162" d="M16 2.667c7.364 0 13.333 5.97 13.333 13.333s-5.969 13.333-13.333 13.333c-7.363 0-13.333-5.97-13.333-13.333s5.97-13.333 13.333-13.333zM16 4.667c-6.258 0-11.333 5.075-11.333 11.333s5.075 11.333 11.333 11.333c6.259 0 11.333-5.074 11.333-11.333s-5.074-11.333-11.333-11.333zM16.007 20.061c0.552 0 1 0.448 1 1 0 0.506-0.376 0.925-0.864 0.991l-0.149 0.009c-0.552 0-1-0.448-1-1 0-0.506 0.376-0.925 0.864-0.991l0.149-0.009zM15.993 9.939c0.506 0 0.925 0.376 0.991 0.864l0.009 0.136v5.892c0 0.552-0.448 1-1 1-0.506 0-0.925-0.376-0.991-0.864l-0.009-0.136v-5.892c0-0.552 0.448-1 1-1z"></path>
</svg>
