<!-- Generated by IcoMoon.io -->
<svg version="1.1" xmlns="http://www.w3.org/2000/svg" width="32" height="32" viewBox="0 0 32 32">
<title>Appereance</title>
<path fill="#3b5162" d="M8.644 3.754c2.343-0.754 4.878-0.482 7 0.721l0.351 0.211 0.357-0.212c2.011-1.139 4.397-1.443 6.642-0.825l0.354 0.106c4.897 1.577 7.089 6.924 5.442 12.040-0.826 2.38-2.18 4.538-3.968 6.316-2.433 2.363-5.115 4.449-7.994 6.22l-0.306 0.19c-0.31 0.193-0.703 0.196-1.016 0.009l-0.327-0.196c-2.883-1.773-5.565-3.859-8.006-6.231-1.78-1.77-3.134-3.928-3.967-6.329-1.641-5.098 0.542-10.443 5.438-12.019zM15.166 6.472c-1.739-1.189-3.922-1.508-5.924-0.864-3.792 1.221-5.511 5.429-4.186 9.547 0.729 2.1 1.924 4.004 3.485 5.557 2.331 2.263 4.9 4.262 7.651 5.954l-0.19-0.12 0.624-0.392c2.178-1.406 4.229-3.002 6.126-4.765l0.704-0.669c1.569-1.561 2.765-3.465 3.486-5.545 1.331-4.135-0.396-8.346-4.19-9.567-2.102-0.675-4.397-0.288-6.171 1.039-0.341 0.255-0.807 0.26-1.153 0.012l-0.262-0.188zM21.16 8.645c1.762 0.562 3.011 2.14 3.167 3.993 0.045 0.536-0.353 1.007-0.89 1.053s-1.008-0.353-1.053-0.889c-0.090-1.071-0.809-1.978-1.817-2.3-0.513-0.164-0.796-0.712-0.632-1.225s0.713-0.795 1.226-0.632z"></path>
</svg>
