<!-- Generated by IcoMoon.io -->
<svg version="1.1" xmlns="http://www.w3.org/2000/svg" width="32" height="32" viewBox="0 0 32 32">
<title>Arrow---Up</title>
<path fill="#3b5162" d="M16 28c-0.561 0-1.024-0.41-1.097-0.943l-0.010-0.148 0.001-19.177-7.002 6.928c-0.431 0.427-1.132 0.428-1.566 0.003-0.394-0.387-0.431-0.993-0.11-1.42l0.107-0.123 8.915-8.822c0.024-0.022 0.049-0.044 0.075-0.064l-0.098 0.085c0.043-0.042 0.088-0.081 0.136-0.115 0.030-0.021 0.061-0.040 0.093-0.059 0.071-0.042 0.146-0.074 0.223-0.098 0.027-0.008 0.055-0.015 0.083-0.022 0.021-0.005 0.043-0.009 0.065-0.013 0.024-0.004 0.047-0.007 0.071-0.009s0.049-0.004 0.073-0.005c0.014-0 0.027-0 0.041-0l0.037 0c0.027 0.001 0.054 0.003 0.082 0.006l-0.118-0.006c0.063 0 0.125 0.005 0.185 0.015 0.027 0.004 0.055 0.010 0.083 0.017 0.022 0.005 0.043 0.011 0.064 0.018 0.025 0.008 0.050 0.017 0.075 0.026s0.051 0.021 0.076 0.033c0.019 0.009 0.038 0.019 0.058 0.030 0.036 0.020 0.070 0.041 0.102 0.064 0.005 0.004 0.011 0.008 0.016 0.012 0.049 0.036 0.093 0.074 0.133 0.115l8.885 8.791c0.431 0.427 0.43 1.118-0.003 1.543-0.394 0.387-1.009 0.42-1.442 0.103l-0.124-0.106-7-6.927-0.001 19.176c0 0.603-0.496 1.091-1.107 1.091z"></path>
</svg>
