<!-- Generated by IcoMoon.io -->
<svg version="1.1" xmlns="http://www.w3.org/2000/svg" width="32" height="32" viewBox="0 0 32 32">
<title>Card</title>
<path fill="#3b5162" d="M1.667 12c0-3.498 2.836-6.333 6.333-6.333h16c3.498 0 6.333 2.836 6.333 6.333v8c0 3.498-2.835 6.333-6.333 6.333h-16c-3.498 0-6.333-2.835-6.333-6.333v-8zM3.783 11h24.435c-0.451-1.911-2.168-3.333-4.217-3.333h-16c-2.049 0-3.766 1.422-4.217 3.333zM28.333 13h-24.667v7c0 2.393 1.94 4.333 4.333 4.333h16c2.393 0 4.333-1.94 4.333-4.333v-7zM17.667 20c0-0.552 0.448-1 1-1h5.333c0.552 0 1 0.448 1 1s-0.448 1-1 1h-5.333c-0.552 0-1-0.448-1-1z"></path>
</svg>
