<!-- Generated by IcoMoon.io -->
<svg version="1.1" xmlns="http://www.w3.org/2000/svg" width="32" height="32" viewBox="0 0 32 32">
<title>Coin</title>
<path fill="none" stroke="#3b5162" stroke-linejoin="miter" stroke-linecap="butt" stroke-miterlimit="4" stroke-width="2.4" d="M28 16c0 6.627-5.373 12-12 12s-12-5.373-12-12c0-6.627 5.373-12 12-12s12 5.373 12 12z"></path>
<path fill="#3b5162" d="M13.945 13.255c0-0.792 0.609-1.288 1.436-1.384v2.794c-0.087-0.017-0.165-0.044-0.244-0.070-0.792-0.261-1.193-0.714-1.193-1.341zM18.297 18.687c0 0.853-0.653 1.419-1.575 1.497v-3.003c0.061 0.017 0.122 0.035 0.174 0.044 0.975 0.27 1.401 0.749 1.401 1.462zM16.739 23.17l-0.009-1.105c2.385-0.226 3.9-1.541 3.9-3.613 0-2.107-1.419-2.994-3.169-3.369l-0.74-0.157v-3.038c0.923 0.148 1.436 0.844 1.462 1.541h2.228c-0.035-1.811-1.454-3.186-3.656-3.421v-1.132h-1.41v1.123c-2.107 0.191-3.76 1.349-3.76 3.438 0 1.976 1.428 2.986 3.047 3.343l0.749 0.165v3.238c-1.114-0.148-1.697-0.818-1.741-1.619h-2.281c0.017 1.61 1.097 3.308 3.978 3.517l-0.009 1.088h1.41z"></path>
</svg>
