<!-- Generated by IcoMoon.io -->
<svg version="1.1" xmlns="http://www.w3.org/2000/svg" width="32" height="32" viewBox="0 0 32 32">
<title>Customer</title>
<path fill="#3b5162" d="M12.788 19.275l0.426 0.002c6.193 0.054 9.696 1.305 9.696 4.721 0 3.344-3.358 4.634-9.28 4.742l-0.843 0.008c-6.459 0-10.121-1.228-10.121-4.723 0-3.499 3.677-4.749 10.121-4.749zM12.788 21.275c-5.356 0-8.121 0.94-8.121 2.749 0 1.798 2.758 2.723 8.121 2.723 5.357 0 8.123-0.94 8.123-2.749 0-1.797-2.761-2.723-8.123-2.723zM23.449 18.331c0.774 0.053 1.544 0.164 2.283 0.328 1.584 0.315 2.762 0.903 3.301 2.035 0.398 0.838 0.398 1.814 0 2.652-0.537 1.129-1.702 1.713-3.295 2.041-0.541 0.111-1.070-0.237-1.181-0.778s0.237-1.070 0.778-1.181c1.025-0.211 1.707-0.553 1.892-0.94 0.14-0.295 0.14-0.64 0.001-0.934-0.185-0.389-0.871-0.732-1.907-0.938-0.663-0.147-1.334-0.243-2.008-0.289-0.551-0.037-0.967-0.515-0.93-1.065s0.515-0.967 1.066-0.93zM12.788 3.333c3.797 0 6.847 3.049 6.847 6.845 0 3.798-3.049 6.847-6.847 6.847s-6.845-3.049-6.845-6.847c0-3.797 3.048-6.845 6.845-6.845zM21.36 4.759c2.98 0 5.396 2.417 5.396 5.396s-2.416 5.396-5.396 5.396c-0.552 0-1-0.448-1-1s0.448-1 1-1c1.876 0 3.396-1.52 3.396-3.396s-1.521-3.396-3.396-3.396c-0.552 0-1-0.448-1-1s0.448-1 1-1zM12.788 5.333c-2.693 0-4.845 2.153-4.845 4.845 0 2.693 2.153 4.847 4.845 4.847s4.847-2.154 4.847-4.847c0-2.692-2.154-4.845-4.847-4.845z"></path>
</svg>
