<!-- Generated by IcoMoon.io -->
<svg version="1.1" xmlns="http://www.w3.org/2000/svg" width="32" height="32" viewBox="0 0 32 32">
<title>Dashboard</title>
<path fill="#3b5162" d="M13.997 9.014c0.117 0.232 0.187 0.484 0.207 0.747l0.518 7.318c0.007 0.1 0.054 0.194 0.132 0.26 0.058 0.049 0.13 0.080 0.209 0.089l0.083 0.002 7.432-0.448c0.603-0.035 1.195 0.175 1.635 0.58s0.689 0.971 0.685 1.626c-0.331 4.817-3.869 8.843-8.687 9.887s-9.764-1.145-12.135-5.362c-0.634-1.087-1.061-2.276-1.259-3.48l-0.063-0.452c-0.055-0.338-0.084-0.68-0.089-1.009l0.004-0.323c0.014-5.029 3.545-9.378 8.513-10.55l0.341-0.075 0.183-0.030c0.961-0.131 1.906 0.372 2.289 1.22zM12.022 9.704l-0.112 0.013-0.305 0.069c-3.958 0.954-6.797 4.361-6.954 8.376l-0.007 0.327c-0.009 0.249-0 0.497 0.030 0.762l0.037 0.271c0.132 1.139 0.5 2.24 1.088 3.249 1.956 3.479 6.023 5.279 9.986 4.421s6.873-4.17 7.142-8.069c0-0.059-0.025-0.115-0.068-0.155-0.029-0.027-0.065-0.045-0.103-0.053l-0.058-0.005-7.42 0.447c-0.626 0.045-1.245-0.157-1.719-0.56s-0.764-0.974-0.806-1.583l-0.518-7.312c-0.001-0.012-0.004-0.024-0.027-0.071-0.034-0.075-0.107-0.122-0.187-0.126zM17.897 2.668c5.714 0.162 10.507 4.267 11.423 9.786l0.013 0.154-0.003 0.269c-0.032 0.397-0.192 0.774-0.458 1.078-0.334 0.381-0.809 0.616-1.328 0.653l-8.861 0.578c-1.136 0.064-2.112-0.78-2.186-1.889l-0.592-8.699 0.007-0.195 0.029-0.22c0.079-0.389 0.282-0.745 0.581-1.016 0.375-0.34 0.873-0.52 1.374-0.5zM17.882 4.599l0.586 8.572c0.003 0.052 0.049 0.092 0.094 0.089l8.796-0.575-0.044-0.24c-0.871-4.338-4.631-7.559-9.142-7.832l-0.29-0.014z"></path>
</svg>
