<!-- Generated by IcoMoon.io -->
<svg version="1.1" xmlns="http://www.w3.org/2000/svg" width="32" height="32" viewBox="0 0 32 32">
<title>Discount</title>
<path fill="#3b5162" d="M18.601 3.622l0.243 0.227 0.958 0.958c0.329 0.328 0.761 0.53 1.22 0.575l0.198 0.010h1.371c2.138 0 3.887 1.672 4.009 3.78l0.007 0.236v1.369c0 0.466 0.161 0.915 0.451 1.271l0.132 0.147 0.958 0.958c1.509 1.502 1.576 3.904 0.194 5.486l-0.18 0.193-0.971 0.971c-0.327 0.327-0.529 0.759-0.574 1.218l-0.010 0.198v1.372c0 2.138-1.672 3.886-3.78 4.008l-0.236 0.007h-1.371c-0.465 0-0.914 0.161-1.27 0.452l-0.147 0.133-0.957 0.956c-1.5 1.511-3.904 1.577-5.487 0.195l-0.206-0.192-0.956-0.956c-0.331-0.329-0.764-0.532-1.222-0.577l-0.198-0.010h-1.372c-2.138 0-3.886-1.671-4.008-3.779l-0.007-0.236v-1.372c0-0.464-0.162-0.913-0.452-1.269l-0.132-0.147-0.956-0.957c-1.51-1.502-1.577-3.905-0.194-5.487l0.18-0.193 0.968-0.969c0.329-0.332 0.532-0.763 0.577-1.223l0.010-0.198v-1.369l0.007-0.236c0.118-2.030 1.743-3.656 3.772-3.773l0.236-0.007h1.372c0.465 0 0.914-0.161 1.27-0.451l0.147-0.132 0.958-0.959c1.502-1.509 3.905-1.575 5.449-0.228zM14.722 5.123l-0.153 0.139-0.962 0.963c-0.69 0.685-1.602 1.094-2.565 1.158l-0.264 0.009h-1.372c-1.050 0-1.914 0.806-2.006 1.833l-0.008 0.183v1.369c0 0.972-0.353 1.907-0.989 2.638l-0.181 0.194-0.97 0.971c-0.736 0.739-0.779 1.907-0.128 2.699l0.139 0.153 0.959 0.96c0.686 0.687 1.097 1.601 1.161 2.565l0.009 0.264v1.372c0 1.051 0.805 1.914 1.831 2.006l0.183 0.008h1.372c0.97 0 1.906 0.353 2.637 0.99l0.194 0.181 0.964 0.964c0.744 0.74 1.912 0.783 2.704 0.133l0.153-0.139 0.961-0.96c0.689-0.686 1.602-1.096 2.565-1.16l0.264-0.009h1.371c1.052 0 1.915-0.805 2.008-1.831l0.008-0.183v-1.372c0-0.972 0.353-1.909 0.989-2.637l0.18-0.193 0.97-0.97c0.736-0.74 0.778-1.907 0.129-2.699l-0.139-0.153-0.963-0.963c-0.685-0.69-1.094-1.601-1.158-2.566l-0.009-0.264v-1.369c0-1.051-0.805-1.915-1.833-2.008l-0.183-0.008h-1.371c-0.972 0-1.908-0.353-2.637-0.988l-0.194-0.18-0.917-0.92-0.053-0.049c-0.739-0.736-1.907-0.779-2.698-0.13zM20.129 18.723c0.093 0.093 0.173 0.2 0.227 0.32 0.040 0.12 0.067 0.253 0.067 0.387 0 0.135-0.027 0.253-0.067 0.373-0.053 0.12-0.133 0.24-0.227 0.333-0.187 0.187-0.44 0.293-0.707 0.293s-0.52-0.107-0.707-0.293c-0.093-0.093-0.16-0.213-0.213-0.333s-0.080-0.239-0.080-0.373c0-0.133 0.027-0.267 0.080-0.387s0.12-0.227 0.213-0.32c0.373-0.373 1.040-0.373 1.413 0zM20.133 11.866c0.355 0.355 0.387 0.911 0.097 1.302l-0.097 0.112-6.853 6.853c-0.391 0.391-1.024 0.391-1.414 0-0.355-0.355-0.387-0.911-0.097-1.302l0.097-0.112 6.853-6.853c0.39-0.391 1.024-0.391 1.414 0zM13.275 11.87c0.187 0.185 0.293 0.44 0.293 0.707 0 0.133-0.013 0.252-0.067 0.373-0.053 0.12-0.133 0.227-0.227 0.333-0.093 0.093-0.2 0.159-0.32 0.212s-0.253 0.081-0.387 0.081c-0.133 0-0.253-0.028-0.373-0.081s-0.24-0.119-0.333-0.212c-0.093-0.107-0.16-0.213-0.213-0.333-0.053-0.121-0.080-0.24-0.080-0.373 0-0.135 0.027-0.267 0.080-0.387s0.12-0.24 0.213-0.32c0.387-0.375 1.040-0.375 1.413 0z"></path>
</svg>
