<!-- Generated by IcoMoon.io -->
<svg version="1.1" xmlns="http://www.w3.org/2000/svg" width="32" height="32" viewBox="0 0 32 32">
<title>Edit</title>
<path fill="#3b5162" d="M27.122 25.612c0.485 0 0.878 0.385 0.878 0.861 0 0.436-0.33 0.796-0.759 0.853l-0.119 0.008h-9.161c-0.485 0-0.878-0.385-0.878-0.861 0-0.436 0.33-0.796 0.759-0.853l0.119-0.008h9.161zM18.212 5.889c1.662-1.63 4.359-1.63 6.021 0l1.726 1.692c1.662 1.63 1.662 4.273 0 5.902l-12.972 12.715c-0.742 0.727-1.747 1.135-2.797 1.135h-5.312c-0.494 0-0.89-0.399-0.878-0.882l0.134-5.254c0.027-0.993 0.441-1.94 1.158-2.642l12.921-12.665zM17.208 9.305l-10.675 10.466c-0.398 0.39-0.629 0.918-0.644 1.469l-0.112 4.371 4.412 0.001c0.519 0 1.018-0.179 1.413-0.503l0.143-0.128 10.728-10.516-5.265-5.16zM22.992 7.106c-0.977-0.957-2.561-0.957-3.538 0l-1.003 0.982 5.264 5.16 1.003-0.983c0.922-0.904 0.974-2.34 0.154-3.303l-0.154-0.165-1.726-1.692z"></path>
</svg>
