<!-- Generated by IcoMoon.io -->
<svg version="1.1" xmlns="http://www.w3.org/2000/svg" width="32" height="32" viewBox="0 0 32 32">
<title>Export</title>
<path fill="#3b5162" d="M19.298 2.667c0.057 0 0.114 0.005 0.168 0.014l0.182 0.001c0.272 0 0.533 0.111 0.721 0.307l6.755 7.035c0.179 0.186 0.279 0.434 0.279 0.693v12.253c0 3.327-2.699 6.183-5.973 6.183h-10.651c-3.444 0-6.112-2.719-6.112-6.183v-14.316c0-3.282 2.796-5.972 6.112-5.972l8.351-0.002c0.055-0.009 0.111-0.014 0.168-0.014zM18.297 4.68l-7.519 0.002c-2.229 0-4.112 1.813-4.112 3.972v14.316c0 2.367 1.781 4.183 4.112 4.183h10.651c2.144 0 3.973-1.936 3.973-4.183l-0.001-10.993-1.168 0.004c-0.445-0.001-0.95-0.001-1.513-0.003-2.36-0.005-4.286-1.854-4.416-4.182l-0.007-0.251-0-2.865zM15.52 11.588c0.506 0 0.925 0.376 0.991 0.864l0.009 0.136-0 6.339 2.077-2.082c0.39-0.391 1.023-0.393 1.414-0.003 0.356 0.354 0.389 0.91 0.1 1.302l-0.097 0.112-3.785 3.801-0.058 0.054c-0.014 0.012-0.028 0.023-0.043 0.034l0.101-0.088c-0.049 0.049-0.102 0.092-0.158 0.129-0.019 0.013-0.040 0.025-0.061 0.037-0.018 0.010-0.035 0.019-0.053 0.028-0.022 0.010-0.044 0.020-0.067 0.029s-0.046 0.018-0.070 0.025c-0.018 0.005-0.036 0.011-0.055 0.015-0.027 0.007-0.053 0.013-0.081 0.017-0.016 0.002-0.032 0.005-0.048 0.006-0.031 0.004-0.063 0.006-0.095 0.007-0.007-0-0.013-0-0.020-0l-0.020 0c-0.033-0.001-0.065-0.003-0.097-0.007l0.117 0.006c-0.055 0-0.108-0.004-0.16-0.013-0.029-0.004-0.058-0.010-0.087-0.017-0.015-0.004-0.030-0.009-0.045-0.013-0.029-0.008-0.058-0.018-0.086-0.030-0.015-0.007-0.030-0.013-0.044-0.020-0.023-0.010-0.047-0.022-0.069-0.035-0.020-0.012-0.040-0.025-0.060-0.038-0.016-0.009-0.031-0.020-0.046-0.031l-0.010-0.009c-0.015-0.011-0.029-0.023-0.043-0.034l-0.059-0.054-3.784-3.801c-0.39-0.391-0.388-1.025 0.003-1.414 0.356-0.354 0.911-0.385 1.302-0.094l0.112 0.097 2.075 2.085 0-6.343c0-0.552 0.448-1 1-1zM20.297 5.802l0 1.744c0 1.342 1.086 2.43 2.428 2.433h1.583l-4.011-4.177z"></path>
</svg>
