<!-- Generated by IcoMoon.io -->
<svg version="1.1" xmlns="http://www.w3.org/2000/svg" width="32" height="32" viewBox="0 0 32 32">
<title>Home</title>
<path fill="#3b5162" d="M12.973 3.718c1.693-1.345 4.067-1.399 5.812-0.16l0.215 0.16 8.119 6.495c0.893 0.692 1.441 1.72 1.535 2.839l0.013 0.268v10.812c0 2.787-2.201 5.053-4.96 5.2h-2.653c-1.268-0.025-2.293-1.012-2.387-2.252l-0.013-0.188v-3.812c0-0.415-0.308-0.76-0.72-0.828l-0.12-0.013h-3.561c-0.425 0.013-0.772 0.32-0.825 0.72l-0.013 0.121v3.8c0 0.079-0.015 0.172-0.027 0.239l-0.013 0.028-0.015 0.092c-0.159 1.135-1.092 2-2.252 2.081l-0.173 0.012h-2.387c-2.787 0-5.067-2.185-5.213-4.933v-11.079c0.012-1.135 0.507-2.188 1.333-2.921l8.307-6.68zM17.84 5.171c-1.013-0.813-2.453-0.852-3.52-0.147l-0.201 0.147-8.107 6.535c-0.465 0.345-0.745 0.865-0.812 1.412l-0.015 0.213v10.8c0 1.773 1.387 3.227 3.148 3.333h2.6c0.293 0 0.547-0.199 0.585-0.479l0.028-0.24 0.013-0.068v-3.599c0-1.427 1.093-2.587 2.493-2.695h3.76c1.425 0 2.585 1.095 2.693 2.495v4.012c0 0.28 0.2 0.521 0.467 0.573h2.479c1.787 0 3.24-1.372 3.347-3.12l0.015-0.213v-10.8c-0.015-0.572-0.253-1.107-0.667-1.505l-0.173-0.148-8.133-6.507z"></path>
</svg>
