<!-- Generated by IcoMoon.io -->
<svg version="1.1" xmlns="http://www.w3.org/2000/svg" width="32" height="32" viewBox="0 0 32 32">
<title>Log-Out</title>
<path fill="#3b5162" d="M15.109 2.695c3.172 0 5.761 2.499 5.907 5.635l0.007 0.278v1.244c0 0.552-0.448 1-1 1-0.506 0-0.925-0.376-0.991-0.864l-0.009-0.136v-1.244c0-2.084-1.629-3.788-3.683-3.907l-0.23-0.007h-6.5c-2.083 0-3.786 1.63-3.905 3.683l-0.007 0.23v14.84c0 2.084 1.629 3.788 3.682 3.907l0.23 0.007h6.513c2.076 0 3.775-1.623 3.893-3.67l0.007-0.229v-1.257c0-0.552 0.448-1 1-1 0.506 0 0.925 0.376 0.991 0.864l0.009 0.136v1.257c0 3.162-2.489 5.743-5.614 5.892l-0.286 0.007h-6.513c-3.171 0-5.76-2.499-5.906-5.635l-0.006-0.278v-14.84c0-3.172 2.498-5.761 5.634-5.907l0.278-0.006h6.5zM25.769 11.336l0.112 0.097 3.904 3.887c0.035 0.035 0.066 0.070 0.094 0.108l-0.094-0.108c0.041 0.041 0.077 0.084 0.11 0.129 0.023 0.032 0.044 0.065 0.063 0.1 0.003 0.007 0.007 0.013 0.010 0.020 0.017 0.032 0.032 0.065 0.045 0.099 0.005 0.015 0.011 0.030 0.016 0.045 0.010 0.028 0.018 0.057 0.025 0.086 0.003 0.016 0.006 0.031 0.009 0.047 0.005 0.027 0.009 0.055 0.012 0.084 0.001 0.020 0.003 0.039 0.004 0.059 0.001 0.013 0.001 0.026 0.001 0.040l-0.001 0.038c-0.001 0.021-0.002 0.041-0.004 0.061l0.005-0.099c0 0.062-0.006 0.124-0.017 0.183-0.003 0.015-0.007 0.031-0.010 0.046-0.007 0.031-0.015 0.061-0.025 0.090-0.005 0.014-0.010 0.027-0.015 0.041-0.012 0.033-0.027 0.065-0.043 0.097-0.004 0.007-0.008 0.015-0.013 0.023-0.046 0.084-0.103 0.161-0.17 0.228l-0.002 0.001-3.904 3.888c-0.391 0.39-1.025 0.388-1.414-0.003-0.354-0.356-0.385-0.911-0.094-1.302l0.097-0.112 2.185-2.181-13.63 0.001c-0.552 0-1-0.448-1-1 0-0.506 0.376-0.925 0.864-0.991l0.136-0.009 13.633-0.001-2.188-2.177c-0.356-0.354-0.389-0.91-0.1-1.302l0.097-0.112c0.354-0.356 0.91-0.389 1.302-0.1z"></path>
</svg>
