<!-- Generated by IcoMoon.io -->
<svg version="1.1" xmlns="http://www.w3.org/2000/svg" width="32" height="32" viewBox="0 0 32 32">
<title>Message</title>
<path fill="#3b5162" d="M21.762 3.677c2.019 0.023 3.94 0.877 5.316 2.365s2.088 3.478 1.971 5.447l-0.002 8.316c0.119 2.030-0.593 4.020-1.969 5.507s-3.298 2.342-5.328 2.365h-12.081c-4.226 0-7.275-3.415-7.275-7.812v-8.376c0-4.397 3.049-7.812 7.275-7.812h12.092zM21.739 5.715h-12.070c-3.058 0-5.252 2.458-5.252 5.774v8.376c0 3.317 2.194 5.774 5.252 5.774h12.070c1.465-0.017 2.86-0.637 3.859-1.716s1.516-2.524 1.427-4.058l0.002-8.436c0.086-1.473-0.43-2.918-1.429-3.998s-2.394-1.7-3.859-1.716zM23.76 11.195c0.317 0.399 0.288 0.966-0.048 1.33l-0.11 0.103-5.476 4.415c-1.33 1.044-3.168 1.096-4.554 0.152l-0.215-0.157-5.513-4.407c-0.438-0.35-0.511-0.991-0.164-1.432 0.316-0.401 0.87-0.498 1.297-0.25l0.124 0.085 5.506 4.401c0.617 0.485 1.464 0.522 2.108 0.118l0.157-0.11 5.466-4.407c0.436-0.352 1.073-0.281 1.422 0.159z"></path>
</svg>
