<!-- Generated by IcoMoon.io -->
<svg version="1.1" xmlns="http://www.w3.org/2000/svg" width="32" height="32" viewBox="0 0 32 32">
<title>Notification</title>
<path fill="#3b5162" d="M19.477 26.254c0.395 0.322 0.458 0.908 0.14 1.308-0.235 0.296-0.507 0.561-0.795 0.778-0.97 0.761-2.204 1.107-3.429 0.961-1.226-0.146-2.344-0.772-3.108-1.742-0.316-0.402-0.251-0.987 0.146-1.307s0.975-0.254 1.291 0.148c0.46 0.585 1.139 0.965 1.885 1.053 0.747 0.089 1.499-0.121 2.102-0.594 0.178-0.134 0.337-0.29 0.475-0.463 0.318-0.4 0.897-0.464 1.292-0.142zM6.87 12l0.016-0.794c0.012-0.34 0.030-0.655 0.057-0.964 0.4-4.315 4.518-7.575 9.011-7.575h0.095c4.49 0 8.61 3.257 9.023 7.58 0.024 0.275 0.034 0.519 0.037 0.862l0.001 1.050c0.001 0.096 0.003 0.18 0.005 0.258l0.012 0.262 0.059 0.249c0.188 0.695 0.517 1.344 0.969 1.908l0.201 0.236 0.082 0.106c0.542 0.809 0.851 1.751 0.895 2.765l-0.001 0.538c-0.038 1.201-0.479 2.361-1.287 3.328-1.070 1.136-2.521 1.841-4.062 1.983-3.98 0.432-7.996 0.432-11.966 0.001-1.552-0.149-2.998-0.853-4.115-2.032-0.824-1.004-1.262-2.269-1.234-3.547l0.001-0.318c0.048-0.972 0.355-1.913 0.89-2.725l0.090-0.115c0.625-0.685 1.052-1.524 1.238-2.428l-0.020 0.081 0.003-0.712zM16.048 4.527h-0.095c-3.598 0-6.876 2.594-7.18 5.882-0.016 0.181-0.028 0.367-0.038 0.563l-0.021 0.622-0.009 1.226-0.019 0.189c-0.253 1.235-0.836 2.379-1.687 3.312l0.066-0.076-0.117 0.194c-0.22 0.397-0.362 0.827-0.418 1.252l-0.023 0.254-0 0.292c-0.018 0.849 0.269 1.678 0.766 2.288 0.767 0.807 1.804 1.312 2.931 1.42 3.85 0.418 7.735 0.418 11.6-0.001 1.114-0.103 2.151-0.607 2.876-1.374 0.549-0.658 0.839-1.489 0.818-2.364l0.001-0.218c-0.028-0.629-0.229-1.238-0.58-1.764l0.020 0.034-0.184-0.216c-0.634-0.782-1.094-1.69-1.351-2.663l-0.087-0.368-0.017-0.124c-0.013-0.181-0.021-0.341-0.025-0.534l-0.004-1.206c-0.003-0.307-0.011-0.513-0.029-0.73-0.315-3.297-3.596-5.891-7.193-5.891z"></path>
</svg>
