<!-- Generated by IcoMoon.io -->
<svg version="1.1" xmlns="http://www.w3.org/2000/svg" width="32" height="32" viewBox="0 0 32 32">
<title>Option</title>
<path fill="#3b5162" d="M24.317 18.763c2.767 0 5.016 2.22 5.016 4.952 0 2.73-2.249 4.952-5.016 4.952s-5.016-2.222-5.016-4.952c0-2.731 2.249-4.952 5.016-4.952zM24.317 21.086c-1.47 0-2.664 1.178-2.664 2.629 0 1.449 1.194 2.629 2.664 2.629s2.663-1.18 2.663-2.629c0-1.451-1.194-2.629-2.663-2.629zM13.49 22.553c0.649 0 1.176 0.52 1.176 1.161s-0.527 1.161-1.176 1.161h-9.645c-0.649 0-1.176-0.52-1.176-1.161s0.527-1.161 1.176-1.161h9.645zM7.683 3.333c2.767 0 5.016 2.222 5.016 4.952s-2.249 4.952-5.016 4.952c-2.765 0-5.016-2.222-5.016-4.952s2.251-4.952 5.016-4.952zM7.683 5.656c-1.468 0-2.663 1.18-2.663 2.629s1.195 2.629 2.663 2.629c1.47 0 2.663-1.18 2.663-2.629s-1.194-2.629-2.663-2.629zM28.157 7.124c0.649 0 1.176 0.52 1.176 1.161s-0.527 1.161-1.176 1.161h-9.647c-0.649 0-1.176-0.52-1.176-1.161s0.527-1.161 1.176-1.161h9.647z"></path>
</svg>
