<!-- Generated by IcoMoon.io -->
<svg version="1.1" xmlns="http://www.w3.org/2000/svg" width="32" height="32" viewBox="0 0 32 32">
<title>Order</title>
<path fill="#3b5162" d="M19.981 2.667c4.083 0 6.686 1.913 6.686 5.677v18.764c0 0.59-0.229 1.156-0.636 1.574s-0.959 0.652-1.55 0.652c-0.352-0.006-0.699-0.095-1.033-0.271l-7.483-4.178-7.453 4.187c-0.898 0.478-1.985 0.258-2.667-0.542l-0.131-0.167-0.125-0.206c-0.163-0.319-0.251-0.673-0.257-1.049v-18.529c0-3.913 2.546-5.912 6.686-5.912h7.962zM19.981 4.597h-7.962c-3.193 0-4.803 1.264-4.803 3.982l-0 18.513c0.001 0.059 0.015 0.117-0 0.094l0.050 0.083c0.086 0.12 0.248 0.159 0.361 0.099l7.45-4.184c0.555-0.308 1.224-0.308 1.782 0.001l7.47 4.171c0.057 0.030 0.119 0.046 0.168 0.047 0.076 0 0.15-0.031 0.204-0.086s0.084-0.13 0.084-0.209v-18.764c0-2.533-1.651-3.747-4.803-3.747zM20.544 11.089c0.52 0 0.941 0.432 0.941 0.965 0 0.489-0.354 0.892-0.814 0.956l-0.128 0.009h-9.157c-0.52 0-0.941-0.432-0.941-0.965 0-0.489 0.354-0.892 0.814-0.956l0.128-0.009h9.157z"></path>
</svg>
