<!-- Generated by IcoMoon.io -->
<svg version="1.1" xmlns="http://www.w3.org/2000/svg" width="32" height="32" viewBox="0 0 32 32">
<title>Paypal</title>
<path fill="none" stroke="#3b5162" stroke-linejoin="round" stroke-linecap="round" stroke-miterlimit="4" stroke-width="2" d="M23.333 9.6c2.267 1.333 3.333 3.733 3.333 6.4 0 3.333-3.333 6-6.667 6h-3.467l-0.8 4.8c-0.062 0.306-0.23 0.58-0.473 0.775s-0.548 0.298-0.86 0.292h-3.6c-0.1 0.002-0.199-0.019-0.29-0.060s-0.171-0.103-0.236-0.18c-0.064-0.077-0.11-0.167-0.134-0.264s-0.027-0.198-0.007-0.296l0.267-1.867M13.333 17.333h3.333c3.333 0 6.667-3.333 6.667-6.667 0-4-2.533-6.667-6.667-6.667h-7.333c-0.667 0-1.333 0.667-1.333 1.333l-2.667 18.667c0 0.667 0.667 1.333 1.333 1.333h3.733l1.6-6.667c0.133-0.8 0.533-1.333 1.333-1.333z"></path>
</svg>
