<!-- Generated by IcoMoon.io -->
<svg version="1.1" xmlns="http://www.w3.org/2000/svg" width="32" height="32" viewBox="0 0 32 32">
<title>Print</title>
<path fill="#3b5162" d="M1.667 10.667c0-2.025 1.642-3.667 3.667-3.667h21.333c2.025 0 3.667 1.642 3.667 3.667v10.667c0 2.025-1.642 3.667-3.667 3.667h-2.667c-0.552 0-1-0.448-1-1s0.448-1 1-1h2.667c0.921 0 1.667-0.746 1.667-1.667v-10.667c0-0.92-0.746-1.667-1.667-1.667h-21.333c-0.92 0-1.667 0.746-1.667 1.667v10.667c0 0.921 0.746 1.667 1.667 1.667h2.667c0.552 0 1 0.448 1 1s-0.448 1-1 1h-2.667c-2.025 0-3.667-1.642-3.667-3.667v-10.667z"></path>
<path fill="#3b5162" d="M26.667 12.667c0 1.105-0.895 2-2 2s-2-0.895-2-2c0-1.105 0.895-2 2-2s2 0.895 2 2z"></path>
<path fill="#3b5162" d="M7 2.667c0-0.552 0.448-1 1-1h16c0.552 0 1 0.448 1 1v5.333c0 0.552-0.448 1-1 1h-16c-0.552 0-1-0.448-1-1v-5.333zM9 3.667v3.333h14v-3.333h-14z"></path>
<path fill="#3b5162" d="M7 18.667c0-0.552 0.448-1 1-1h16c0.552 0 1 0.448 1 1v10.667c0 0.552-0.448 1-1 1h-16c-0.552 0-1-0.448-1-1v-10.667zM9 19.667v8.667h14v-8.667h-14z"></path>
</svg>
