<!-- Generated by IcoMoon.io -->
<svg version="1.1" xmlns="http://www.w3.org/2000/svg" width="32" height="32" viewBox="0 0 32 32">
<title>Restaurant</title>
<path fill="#3b5162" d="M29.285 9.032l-1.905-5.714c-0.13-0.389-0.494-0.652-0.904-0.651h-20.952c-0.41-0-0.774 0.262-0.904 0.651l-1.905 5.714c-0.029 0.089-0.046 0.182-0.049 0.275 0 0.010 0 0.016 0 0.026v0.952c0.003 1.492 0.709 2.896 1.905 3.789 0 0.008 0 0.013 0 0.021v12.381c0 1.578 1.279 2.857 2.857 2.857h17.143c1.578 0 2.857-1.279 2.857-2.857v-12.381c0-0.008 0-0.013 0-0.021 1.196-0.893 1.901-2.296 1.905-3.789v-0.952c0-0.010 0-0.016 0-0.026-0.003-0.094-0.019-0.186-0.049-0.275zM6.267 4.571h19.523l1.27 3.81h-22.127l1.333-3.81zM17.905 27.429h-3.81v-7.619h3.81v7.619zM25.524 26.476c0 0.526-0.426 0.952-0.952 0.952h-4.762v-8.571c0-0.526-0.426-0.952-0.952-0.952h-5.714c-0.526 0-0.952 0.426-0.952 0.952v8.571h-4.762c-0.526 0-0.952-0.426-0.952-0.952v-11.524c1.337 0.274 2.726-0.045 3.81-0.874 1.7 1.249 4.014 1.249 5.714 0 1.7 1.249 4.014 1.249 5.714 0 1.083 0.83 2.473 1.149 3.81 0.874v11.524zM24.571 13.143c-0.824-0.001-1.606-0.362-2.14-0.989-0.346-0.396-0.948-0.437-1.344-0.090-0.032 0.028-0.062 0.058-0.090 0.090-1.059 1.182-2.876 1.282-4.057 0.223-0.078-0.070-0.153-0.144-0.223-0.223-0.373-0.396-0.996-0.415-1.392-0.042-0.015 0.014-0.029 0.028-0.042 0.042-1.059 1.182-2.875 1.282-4.057 0.223-0.078-0.070-0.153-0.144-0.223-0.223-0.373-0.396-0.996-0.415-1.392-0.042-0.014 0.014-0.029 0.028-0.042 0.042-0.534 0.627-1.316 0.988-2.14 0.989-1.578 0-2.857-1.279-2.857-2.857h22.857c0 1.578-1.279 2.857-2.857 2.857z"></path>
</svg>
