<!-- Generated by IcoMoon.io -->
<svg version="1.1" xmlns="http://www.w3.org/2000/svg" width="32" height="32" viewBox="0 0 32 32">
<title>Security</title>
<path fill="#3b5162" d="M16.013 2.667c3.086 0 5.797 1.932 6.791 4.755 0.184 0.522-0.097 1.091-0.628 1.272s-1.109-0.096-1.293-0.618c-0.712-2.024-2.657-3.41-4.874-3.41-2.756-0.011-5.015 2.109-5.165 4.781l-0.008 0.26-0 1.793 10.342 0c3.302 0 5.998 2.559 6.149 5.772l0.007 0.285v5.717c0 3.345-2.756 6.057-6.156 6.057h-10.355c-3.4 0-6.156-2.712-6.156-6.057v-5.717c0-2.649 1.729-4.901 4.136-5.724l0-2.132c0.017-3.902 3.247-7.052 7.21-7.037zM21.178 13.502h-10.355c-2.277 0-4.123 1.816-4.123 4.057v5.717c0 2.241 1.846 4.057 4.123 4.057h10.355c2.277 0 4.123-1.816 4.123-4.057v-5.717c0-2.241-1.846-4.057-4.123-4.057zM16 17.937c0.515 0 0.94 0.376 1.007 0.864l0.009 0.136v2.963c0 0.552-0.455 1-1.016 1-0.515 0-0.94-0.376-1.007-0.864l-0.009-0.136v-2.963c0-0.552 0.455-1 1.016-1z"></path>
</svg>
