<!-- Generated by IcoMoon.io -->
<svg version="1.1" xmlns="http://www.w3.org/2000/svg" width="32" height="32" viewBox="0 0 32 32">
<title>Setting</title>
<path fill="#3b5162" d="M16.821 2.667c0.945-0 1.851 0.374 2.51 1.038s1.015 1.561 0.987 2.399l0.011 0.197c0.023 0.194 0.087 0.381 0.192 0.554 0.204 0.34 0.537 0.587 0.927 0.686s0.803 0.042 1.195-0.182l0.219-0.111c1.64-0.755 3.607-0.155 4.516 1.392l0.818 1.39c0.022 0.037 0.041 0.075 0.057 0.113l0.076 0.149c0.731 1.529 0.211 3.348-1.178 4.272l-0.343 0.211c-0.179 0.123-0.329 0.283-0.441 0.475-0.203 0.341-0.259 0.748-0.155 1.13s0.359 0.707 0.746 0.927l0.223 0.14c0.673 0.461 1.158 1.14 1.37 1.919 0.239 0.878 0.111 1.814-0.363 2.61l-0.879 1.435-0.133 0.203c-1.033 1.456-3.040 1.901-4.571 1.035l-0.181-0.092c-0.189-0.083-0.394-0.129-0.579-0.134-0.405-0.002-0.793 0.155-1.079 0.435s-0.446 0.661-0.445 1.103l-0.011 0.229c-0.148 1.772-1.662 3.145-3.486 3.145h-1.647c-1.932 0-3.498-1.534-3.496-3.366l-0.011-0.197c-0.023-0.194-0.087-0.381-0.197-0.563-0.199-0.341-0.529-0.59-0.916-0.691s-0.8-0.047-1.2 0.179l-0.237 0.116c-0.751 0.331-1.597 0.392-2.391 0.171-0.895-0.249-1.652-0.838-2.094-1.619l-0.85-1.438-0.113-0.213c-0.774-1.6-0.167-3.524 1.372-4.396l0.14-0.086c0.411-0.279 0.658-0.739 0.658-1.23 0-0.535-0.291-1.029-0.801-1.318l-0.207-0.13c-1.486-1.012-1.94-2.978-1.019-4.543l0.866-1.394c0.963-1.637 3.096-2.202 4.738-1.28l0.178 0.093c0.181 0.081 0.378 0.125 0.567 0.127 0.835 0 1.516-0.657 1.528-1.499l0.011-0.259c0.068-0.801 0.423-1.553 1.003-2.124 0.654-0.644 1.543-1.006 2.471-1.006h1.647zM16.822 4.597h-1.647c-0.403 0-0.79 0.157-1.074 0.437-0.252 0.248-0.406 0.575-0.433 0.881l-0.018 0.407c-0.138 1.772-1.649 3.164-3.498 3.163-0.476-0.005-0.946-0.108-1.425-0.325l-0.257-0.133c-0.731-0.41-1.663-0.164-2.095 0.571l-0.866 1.394c-0.397 0.675-0.198 1.533 0.416 1.953l0.348 0.216c0.957 0.634 1.538 1.696 1.538 2.839 0 1.126-0.565 2.179-1.54 2.839l-0.208 0.128c-0.684 0.388-0.948 1.225-0.63 1.884l0.075 0.142 0.839 1.418c0.197 0.348 0.528 0.605 0.919 0.714 0.347 0.097 0.716 0.070 1.005-0.056l0.145-0.069c0.8-0.457 1.754-0.583 2.649-0.348s1.657 0.81 2.109 1.584c0.243 0.402 0.397 0.849 0.457 1.362l0.027 0.471c0.083 0.75 0.731 1.334 1.519 1.334h1.647c0.796 0 1.458-0.6 1.52-1.335l0.007-0.145c-0.004-0.911 0.363-1.787 1.021-2.431s1.551-1.005 2.503-1c0.467 0.012 0.927 0.115 1.397 0.322l0.421 0.211c0.661 0.284 1.446 0.077 1.843-0.482l0.097-0.148 0.859-1.403c0.203-0.341 0.259-0.748 0.155-1.13-0.092-0.338-0.303-0.634-0.559-0.81l-0.363-0.225c-0.694-0.46-1.199-1.151-1.416-1.949-0.239-0.878-0.111-1.814 0.353-2.593 0.254-0.434 0.602-0.807 1.057-1.116l0.214-0.132c0.683-0.391 0.946-1.228 0.631-1.89l-0.094-0.178-0.017-0.037-0.78-1.327c-0.369-0.627-1.136-0.898-1.787-0.684l-0.148 0.058-0.138 0.069c-0.798 0.46-1.749 0.591-2.645 0.363s-1.663-0.796-2.128-1.574c-0.243-0.402-0.397-0.848-0.457-1.362l-0.018-0.336c0.012-0.404-0.144-0.796-0.432-1.086s-0.683-0.453-1.096-0.453zM16.004 11.642c2.456 0 4.448 1.951 4.448 4.358s-1.991 4.358-4.448 4.358c-2.456 0-4.448-1.951-4.448-4.358s1.991-4.358 4.448-4.358zM16.004 13.573c-1.368 0-2.477 1.087-2.477 2.427s1.109 2.427 2.477 2.427c1.368 0 2.477-1.087 2.477-2.427s-1.109-2.427-2.477-2.427z"></path>
</svg>
