<!-- Generated by IcoMoon.io -->
<svg version="1.1" xmlns="http://www.w3.org/2000/svg" width="20" height="20" viewBox="0 0 32 32">
<title>Trash</title>
<path fill="#FFF200" d="M25.172 11.625l0.133 0.002c0.492 0.041 0.869 0.449 0.895 0.941l-0.013 0.274-0.419 5.135-0.44 5.011c-0.093 1-0.176 1.844-0.248 2.508-0.25 2.315-1.753 3.746-4.018 3.789-3.53 0.065-6.922 0.065-10.217-0.007-2.2-0.046-3.68-1.493-3.926-3.773l-0.17-1.679-0.296-3.258-0.304-3.575-0.347-4.291c-0.043-0.551 0.357-1.033 0.894-1.077 0.492-0.041 0.928 0.301 1.031 0.782l0.040 0.393 0.326 4.023 0.356 4.17c0.16 1.805 0.298 3.266 0.409 4.292 0.14 1.299 0.824 1.967 2.028 1.993 3.269 0.071 6.637 0.071 10.141 0.007 1.277-0.024 1.972-0.686 2.115-2.009l0.169-1.67c0.049-0.515 0.102-1.083 0.158-1.7l0.356-4.101 0.429-5.262c0.040-0.505 0.438-0.891 0.918-0.918zM4.975 9.319c-0.539 0-0.975-0.448-0.975-1 0-0.506 0.367-0.925 0.843-0.991l0.132-0.009h4.248c0.505 0 0.947-0.333 1.105-0.813l0.039-0.148 0.33-1.684c0.291-1.115 1.235-1.909 2.341-1.999l0.209-0.008h5.504c1.125 0 2.118 0.728 2.5 1.854l0.064 0.216 0.316 1.621c0.099 0.508 0.504 0.887 0.994 0.952l0.149 0.010h4.249c0.539 0 0.975 0.448 0.975 1 0 0.506-0.367 0.925-0.843 0.991l-0.132 0.009h-22.050zM18.752 4.667h-5.504c-0.274 0-0.517 0.164-0.618 0.371l-0.034 0.091-0.316 1.622c-0.039 0.198-0.095 0.389-0.166 0.57l7.773 0c-0.045-0.113-0.083-0.23-0.115-0.35l-0.051-0.221-0.302-1.559c-0.071-0.271-0.288-0.469-0.551-0.514l-0.115-0.010z"></path>
</svg>
