<!-- Generated by IcoMoon.io -->
<svg version="1.1" xmlns="http://www.w3.org/2000/svg" width="32" height="32" viewBox="0 0 32 32">
<title>Wallet</title>
<path fill="#3b5162" d="M21.584 3.333c4.28 0 7.749 3.548 7.749 7.925v9.483c0 4.377-3.47 7.925-7.749 7.925h-11.168c-4.28 0-7.749-3.548-7.749-7.925v-9.483c0-4.377 3.47-7.925 7.749-7.925h11.168zM21.584 5.315h-11.168c-3.209 0-5.811 2.661-5.811 5.943v9.483c0 3.282 2.602 5.943 5.811 5.943h11.168c3.209 0 5.811-2.661 5.811-5.943l-0.001-0.37-4.261 0.001c-2.455-0.001-4.445-2.036-4.447-4.547 0-2.427 1.861-4.409 4.203-4.54l0.244-0.007 4.261-0 0.001-0.020c0-3.186-2.451-5.786-5.53-5.936l-0.281-0.007zM27.395 13.26l-4.26 0.001c-1.387 0.001-2.51 1.149-2.51 2.564 0.001 1.349 1.019 2.455 2.313 2.558l0.196 0.008 4.261-0v-5.131zM23.726 14.754c0.535 0 0.969 0.444 0.969 0.991 0 0.502-0.365 0.916-0.838 0.982l-0.131 0.009h-0.403c-0.535 0-0.969-0.444-0.969-0.991 0-0.502 0.365-0.916 0.838-0.982l0.131-0.009h0.403zM16.472 9.33c0.535 0 0.969 0.444 0.969 0.991 0 0.502-0.365 0.916-0.838 0.982l-0.131 0.009h-6.976c-0.535 0-0.969-0.444-0.969-0.991 0-0.502 0.365-0.916 0.838-0.982l0.132-0.009h6.976z"></path>
</svg>
