<svg width="21" height="20" viewBox="0 0 21 20" fill="none" xmlns="http://www.w3.org/2000/svg">
<path d="M8.99776 4.7606C9.08545 4.93485 9.13817 5.12392 9.15332 5.32102L9.54185 10.8095C9.54706 10.8847 9.58269 10.9548 9.64085 11.0042C9.68448 11.0413 9.73808 11.0645 9.79801 11.0712L9.85991 11.0724L15.4341 10.7366C15.8867 10.71 16.3305 10.8675 16.6604 11.1719C16.9902 11.4763 17.1768 11.9004 17.1744 12.3912C16.9265 16.0037 14.273 19.0237 10.659 19.8065C7.04503 20.5893 3.33611 18.9474 1.55781 15.7848C1.08229 14.9695 0.761779 14.0778 0.613798 13.1749L0.566427 12.8359C0.525302 12.5821 0.50319 12.3257 0.5 12.0795L0.503114 11.8372C0.513398 8.06546 3.16156 4.80403 6.88809 3.92434L7.14383 3.86807L7.2814 3.84532C8.002 3.74681 8.71097 4.12453 8.99776 4.7606ZM7.51643 5.27813L7.43217 5.28772L7.20369 5.33933C4.23526 6.05477 2.1062 8.61031 1.98796 11.621L1.9828 11.8661C1.97569 12.0525 1.9825 12.2392 2.00499 12.4378L2.03277 12.6408C2.13212 13.495 2.40795 14.3206 2.84914 15.0772C4.31632 17.6863 7.36669 19.0367 10.339 18.3929C13.3113 17.7491 15.4936 15.2653 15.6958 12.3414C15.6958 12.2974 15.6774 12.2552 15.6446 12.225C15.6228 12.2049 15.5959 12.1912 15.5675 12.1851L15.524 12.1817L9.95904 12.5169C9.48938 12.5503 9.02549 12.3992 8.67003 12.0971C8.31456 11.7951 8.09684 11.3669 8.06522 10.91L7.67702 5.42617C7.67632 5.41708 7.67385 5.40822 7.65682 5.37299C7.6315 5.31695 7.57648 5.28131 7.51643 5.27813ZM11.923 0.00105033C16.2084 0.122269 19.8029 3.20162 20.4904 7.34084L20.5 7.4567L20.4977 7.65855C20.4737 7.95621 20.3538 8.23931 20.1545 8.46677C19.9041 8.75241 19.5477 8.92862 19.1588 8.95674L12.5133 9.39005C11.6615 9.43818 10.9295 8.80509 10.8741 7.97348L10.4299 1.44914L10.4349 1.30295L10.457 1.13824C10.5162 0.84619 10.6684 0.579378 10.8925 0.376428C11.1739 0.121564 11.5474 -0.0133911 11.923 0.00105033ZM11.9113 1.44902L12.3511 7.87814C12.3537 7.91719 12.388 7.94688 12.4214 7.94502L19.0182 7.51352L18.9854 7.33352C18.3318 4.0802 15.5119 1.66443 12.1287 1.45932L11.9113 1.44902Z" fill="#FFF200"/>
</svg>
