<svg width="22" height="22" viewBox="0 0 22 22" fill="none" xmlns="http://www.w3.org/2000/svg">
<path d="M10.6746 8.11819C8.17769 8.11819 5.68112 8.11888 3.1842 8.11646C2.98124 8.11646 2.82061 8.22262 2.65304 8.3038C1.3874 8.91754 1.04809 10.2886 1.59279 11.3943C1.81101 11.8374 2.17391 12.1399 2.60897 12.3498C2.81783 12.4504 2.90249 12.5757 2.87993 12.8102C2.85495 13.0739 2.87334 13.3407 2.85461 13.6068C2.84385 13.7608 2.79355 13.7823 2.65442 13.7462C2.24157 13.639 1.82697 13.5374 1.4103 13.4479C1.06093 13.3729 0.727179 13.3913 0.42569 13.6304C-0.22031 14.1435 -0.11519 15.1329 0.635586 15.4726C1.1102 15.6874 1.62297 15.7869 2.12222 15.925C2.3165 15.9788 2.51183 16.0298 2.70889 16.0731C2.81193 16.0957 2.84073 16.146 2.84281 16.2497C2.86155 17.2323 2.88791 18.2145 2.90699 19.1966C2.90942 19.3219 2.93718 19.4322 2.99373 19.5425C3.1731 19.8912 3.34136 20.2451 3.61614 20.5351C3.92526 20.8613 4.31279 21.0628 4.71212 21.2467C4.75618 21.2668 4.81308 21.2644 4.86408 21.2644C8.75395 21.2651 12.6438 21.2647 16.5341 21.2661C16.6173 21.2661 16.6888 21.247 16.7644 21.2103C17.2425 20.9778 17.6731 20.6878 18.0009 20.2583C18.3125 19.8503 18.4832 19.3996 18.4887 18.8823C18.4984 18.0098 18.5224 17.1372 18.5345 16.2643C18.5362 16.1262 18.5643 16.0596 18.7198 16.0225C19.3304 15.8764 19.9406 15.7269 20.5343 15.5184C21.0644 15.3321 21.3482 14.821 21.224 14.2653C21.1043 13.7289 20.6009 13.3629 20.0624 13.4163C19.5947 13.4628 19.1465 13.5988 18.6965 13.7213C18.5321 13.766 18.5185 13.7199 18.5224 13.5787C18.531 13.2609 18.5296 12.9427 18.5224 12.6249C18.5203 12.5299 18.5498 12.4789 18.6327 12.4365C18.7659 12.3689 18.8953 12.2919 19.0226 12.2128C19.7876 11.7371 20.1648 10.8711 20.0135 9.94239C19.8765 9.09968 19.1819 8.35098 18.3357 8.17856C18.0505 8.12062 17.7487 8.13311 17.4545 8.13276C15.1949 8.12964 12.9349 8.13103 10.675 8.13103L10.6746 8.11819Z" fill="#1F1D2B"/>
<path d="M9.95384 0.0192014C10.0097 0.12363 10.0461 0.201345 10.0912 0.273855C10.4808 0.897998 10.5176 1.55892 10.3209 2.25418C10.1526 2.84883 9.90457 3.4133 9.69155 3.99061C9.45806 4.62343 9.33768 5.26734 9.46778 5.94145C9.52502 6.23808 9.69121 6.48163 9.83935 6.7349C9.86398 6.77688 9.89937 6.78277 9.941 6.78277C10.4371 6.78277 10.9329 6.78277 11.4658 6.78277C11.283 6.56108 11.1581 6.33869 11.0713 6.09479C10.8694 5.52824 10.9284 4.96724 11.115 4.41492C11.3138 3.82616 11.5338 3.24434 11.7402 2.65836C11.836 2.38636 11.9075 2.10743 11.9626 1.82398C12.0542 1.35145 11.9449 0.918467 11.76 0.480283C11.6084 0.120855 11.4138 -0.0442882 11.0061 0.0101812C10.672 0.0549363 10.3275 0.0192014 9.95384 0.0192014V0.0192014Z" fill="#1F1D2B"/>
<path d="M7.62374 6.78328C7.64386 6.72881 7.62062 6.70695 7.60535 6.68406C7.10958 5.94508 7.129 5.1551 7.37359 4.34326C7.56823 3.69761 7.85584 3.0863 8.064 2.44481C8.30513 1.70132 8.31172 0.986627 7.91204 0.291708C7.83398 0.155708 7.74898 0.0748713 7.58141 0.0627284C7.17237 0.0335856 6.76472 -0.00145494 6.35394 0.0332389C6.23251 0.0436471 6.19192 0.0724428 6.27068 0.182075C6.80635 0.929382 6.74459 1.72908 6.47225 2.54438C6.2627 3.17199 5.98827 3.77706 5.80925 4.41542C5.67464 4.89559 5.57298 5.37853 5.68192 5.88193C5.75096 6.20112 5.92755 6.46236 6.10484 6.72534C6.13919 6.77634 6.18359 6.78363 6.23841 6.78363C6.70019 6.78259 7.16196 6.78293 7.62408 6.78293L7.62374 6.78328Z" fill="#1F1D2B"/>
<path d="M13.7382 0.0387455C13.8062 0.180296 13.853 0.298255 13.9165 0.4065C14.2406 0.960214 14.2569 1.5396 14.0942 2.14605C13.9186 2.79899 13.6643 3.42313 13.4374 4.05768C13.2875 4.47644 13.1515 4.90005 13.1484 5.35177C13.1456 5.75317 13.2598 6.12474 13.4485 6.47619C13.5564 6.67707 13.7125 6.78289 13.9495 6.77838C14.3478 6.7704 14.7464 6.7763 15.1683 6.7763C15.119 6.68054 15.084 6.5893 15.0299 6.51158C14.7016 6.04252 14.7096 5.51726 14.7551 4.98019C14.8089 4.34009 15.0992 3.77597 15.3112 3.18652C15.5045 2.64981 15.723 2.11968 15.7543 1.53995C15.7806 1.04244 15.6013 0.602174 15.365 0.178562C15.3081 0.0765617 15.2116 0.0581736 15.1155 0.050194C14.6659 0.0120307 14.2159 0.017582 13.7385 0.0390922L13.7382 0.0387455Z" fill="#1F1D2B"/>
<path d="M10.7005 12.5633C8.70663 12.5633 6.71312 12.565 4.71927 12.5598C4.57945 12.5595 4.53851 12.5862 4.53921 12.7347C4.54753 14.4395 4.54545 16.144 4.551 17.8489C4.55204 18.201 4.55551 18.5542 4.60582 18.9039C4.66896 19.3411 4.80669 19.4816 5.2428 19.5433C5.92626 19.6401 6.61563 19.6193 7.30222 19.6218C10.2262 19.6325 13.1502 19.629 16.0742 19.6342C16.1918 19.6342 16.273 19.5905 16.3688 19.527C16.7414 19.2793 16.8368 18.9508 16.8333 18.5057C16.8181 16.593 16.8434 14.6803 16.8642 12.7676C16.8663 12.5827 16.8097 12.5595 16.6467 12.5598C14.6646 12.5654 12.6829 12.5633 10.7005 12.5633Z" fill="#FFF200"/>
<path d="M10.7549 9.80443C8.65693 9.80443 6.55864 9.8013 4.4607 9.8072C4.10891 9.80824 3.75538 9.80686 3.40497 9.85508C3.16038 9.88873 3.02021 10.0667 3.02403 10.345C3.02785 10.6246 3.16974 10.8026 3.41676 10.8279C3.99858 10.8876 4.58317 10.8761 5.16638 10.8775C9.3914 10.8862 13.6164 10.8886 17.8414 10.8931C18.1134 10.8931 18.3546 10.6367 18.3612 10.3408C18.3681 10.0223 18.1703 9.80061 17.8636 9.79922C16.4533 9.79263 15.043 9.78847 13.6327 9.78569C12.6731 9.78361 11.7138 9.78535 10.7542 9.78535L10.7549 9.80443Z" fill="#FFF200"/>
</svg>
